<svg width="24" height="24" viewBox="0 0 24 24" fill="none" xmlns="http://www.w3.org/2000/svg">
<g clip-path="url(#clip0_6858_19225)">
<path fill-rule="evenodd" clip-rule="evenodd" d="M12.0711 4.08326C12.4359 3.92435 12.8601 3.99675 13.1515 4.26764L20.6809 11.2677C20.8844 11.4569 21 11.7222 21 12.0001C21 12.2779 20.8844 12.5432 20.6809 12.7324L13.1515 19.7324C12.8601 20.0033 12.4359 20.0757 12.0711 19.9168C11.7064 19.7579 11.4706 19.3979 11.4706 19V15.8272C9.11308 15.9578 7.46633 16.5368 6.40071 17.0882C5.79289 17.4027 5.36721 17.7118 5.10201 17.9319C4.96933 18.0421 4.87667 18.1301 4.82144 18.1856C4.79382 18.2133 4.77557 18.2328 4.76636 18.2429L4.75975 18.2503C4.48887 18.5668 4.04969 18.6825 3.65764 18.5396C3.26277 18.3957 3 18.0203 3 17.6001C3 12.7096 6.6946 8.74152 11.4706 8.25104V5.00002C11.4706 4.60218 11.7064 4.24218 12.0711 4.08326ZM5.33351 15.39C5.38198 15.3639 5.43136 15.3379 5.48165 15.3119C6.97721 14.5381 9.25252 13.8 12.4706 13.8H13.4706V16.7049L18.5313 12L13.4706 7.29512V10.2H12.4706C9.09021 10.2 6.27228 12.3732 5.33351 15.39Z" fill="black"/>
</g>
<defs>
<clipPath id="clip0_6858_19225">
<rect width="24" height="24" fill="white"/>
</clipPath>
</defs>
</svg>
