<svg width="24" height="24" viewBox="0 0 24 24" fill="none" xmlns="http://www.w3.org/2000/svg">
<g clip-path="url(#clip0_6859_21533)">
<path fill-rule="evenodd" clip-rule="evenodd" d="M20.7071 3.29292C20.9866 3.57236 21.0753 3.99016 20.9334 4.35901L14.3949 21.359C14.2315 21.784 13.8016 22.0449 13.3492 21.9937C12.8968 21.9425 12.536 21.5922 12.4716 21.1414L11.27 12.7301L2.85862 11.5284C2.40789 11.4641 2.05756 11.1033 2.00638 10.6509C1.9552 10.1985 2.2161 9.76859 2.64106 9.60515L19.6411 3.06668C20.0099 2.92482 20.4277 3.01348 20.7071 3.29292ZM6.94635 10.0921L12.2953 10.8562C12.7353 10.9191 13.081 11.2648 13.1438 11.7048L13.908 17.0537L18.259 5.74108L6.94635 10.0921Z" fill="black"/>
</g>
<defs>
<clipPath id="clip0_6859_21533">
<rect width="24" height="24" fill="white"/>
</clipPath>
</defs>
</svg>
