<svg width="24" height="24" viewBox="0 0 24 24" fill="none" xmlns="http://www.w3.org/2000/svg">
<path fill-rule="evenodd" clip-rule="evenodd" d="M5 12.8848C5 10.4978 5.80434 8.53626 7.1247 7.17667C8.44293 5.81927 10.3349 5 12.6328 5H13.0045C15.0144 5 16.704 5.59054 17.8745 6.59806C19.0288 7.59154 19.75 9.04918 19.75 10.9601C19.75 12.458 19.4062 13.5598 18.9413 14.2544C18.4851 14.936 17.9395 15.2033 17.4222 15.2033C17.2432 15.2033 16.9845 15.1391 16.8074 14.9723C16.6738 14.8465 16.4294 14.5168 16.5283 13.6311L16.9742 8.85788C17.0255 8.30799 16.6214 7.82059 16.0715 7.76924C15.5216 7.71789 15.0342 8.12204 14.9829 8.67194L14.9796 8.70666C14.0443 8.05674 13.0182 7.76491 12.2269 7.76491H12.0307C10.7358 7.76491 9.57124 8.17125 8.74097 9.07949C7.92251 9.9748 7.55374 11.2217 7.55374 12.66C7.55374 15.0418 9.15889 17.2033 11.5279 17.2033H11.7241C12.7392 17.2033 13.9428 16.817 14.9873 15.8798C15.1144 16.0839 15.2648 16.2669 15.4363 16.4284C16.0902 17.0441 16.9002 17.2033 17.4222 17.2033C18.7348 17.2033 19.8531 16.4876 20.6033 15.3669C21.3448 14.2592 21.75 12.7394 21.75 10.9601C21.75 8.49796 20.798 6.47554 19.1793 5.08224C17.5768 3.70298 15.3937 3 13.0045 3H12.6328C9.83986 3 7.41539 4.00658 5.68994 5.78331C3.96662 7.55784 3 10.0387 3 12.8848C3 15.4362 3.83969 17.6609 5.35793 19.2549C6.87976 20.8527 9.02076 21.75 11.4866 21.75H11.8583C12.3669 21.75 12.8707 21.7159 13.3481 21.66C13.8966 21.5957 14.2892 21.0989 14.2249 20.5504C14.1607 20.0019 13.6639 19.6093 13.1154 19.6736C12.7046 19.7217 12.2791 19.75 11.8583 19.75H11.4866C9.5224 19.75 7.92012 19.0451 6.80616 17.8755C5.68861 16.7022 5 14.9942 5 12.8848ZM12.2269 9.76491C12.8298 9.76491 13.9796 10.1673 14.7307 11.2375L14.556 13.2308C13.7003 14.7777 12.4739 15.2033 11.7241 15.2033H11.5279C10.5717 15.2033 9.55374 14.2731 9.55374 12.66C9.55374 11.5429 9.8392 10.8423 10.2171 10.4289C10.5832 10.0285 11.1571 9.76491 12.0307 9.76491H12.2269Z" fill="black"/>
</svg>
