<svg width="24" height="24" viewBox="0 0 24 24" fill="none" xmlns="http://www.w3.org/2000/svg">
<path d="M10.3285 11.8461C10.9366 11.8201 11.5371 12.2388 11.657 12.9185C11.7609 13.5078 11.5658 14.1017 11.2721 14.5988C10.9749 15.1017 10.5482 15.5563 10.1004 15.8886C9.98661 15.9731 9.83976 15.9989 9.70399 15.9585C9.16951 15.7994 8.61299 15.5182 8.16174 15.1472C7.7157 14.7806 7.32926 14.2892 7.22536 13.6999C7.10551 13.0202 7.52667 12.4214 8.10698 12.2378C8.40448 12.1437 8.73954 12.159 9.05619 12.3139C9.13766 12.3537 9.21606 12.4019 9.29109 12.458C9.34239 12.3796 9.3996 12.3075 9.46252 12.2422C9.70709 11.9884 10.0167 11.8594 10.3285 11.8461Z" fill="black"/>
<path d="M16.0192 12.238C16.5995 12.4215 17.0207 13.0204 16.9008 13.7001C16.7969 14.2894 16.4105 14.7807 15.9645 15.1474C15.5132 15.5183 14.9567 15.7995 14.4223 15.9587C14.2865 15.9991 14.1396 15.9732 14.0259 15.8888C13.5781 15.5564 13.1513 15.1019 12.8541 14.599C12.5604 14.1019 12.3653 13.508 12.4692 12.9187C12.5891 12.239 13.1896 11.8203 13.7978 11.8463C14.1095 11.8596 14.4191 11.9885 14.6637 12.2424C14.7266 12.3077 14.7838 12.3798 14.8351 12.4582C14.9102 12.402 14.9886 12.3539 15.07 12.314C15.3867 12.1591 15.7217 12.1438 16.0192 12.238Z" fill="black"/>
<path fill-rule="evenodd" clip-rule="evenodd" d="M8.00013 3.01896C9.482 1.7604 11.4032 1 13.5 1C18.1944 1 22 4.80558 22 9.5C22 11.0798 21.436 12.5276 20.5 13.6534V15.0585C20.5 16.2246 19.8261 17.2726 18.7932 17.7656C17.6885 20.7526 15.4009 23.0007 12 23.0007C8.59912 23.0007 6.31145 20.7526 5.20677 17.7656C4.17389 17.2726 3.5 16.2246 3.5 15.0585V13.6534C2.56397 12.5276 2 11.0798 2 9.5C2 6.07835 4.64366 3.27436 8.00013 3.01896ZM13.5 3C11.7925 3 10.2408 3.65705 9.08014 4.73395C8.89972 4.90135 8.66389 4.99634 8.4178 5.00073C5.97066 5.04438 4 7.04216 4 9.5C4 10.2438 4.18027 10.9456 4.5 11.564V11.0355C4.5 8.53063 6.53063 6.5 9.03553 6.5C10.2384 6.5 11.3921 6.97785 12.2426 7.82843L12.8939 8.47969C13.7645 8.38967 14.5826 8.00319 15.2071 7.37868L15.2929 7.29289C15.6174 6.96842 16.121 6.90642 16.5145 7.14251C18.1465 8.12172 19.2204 9.79215 19.4527 11.6531C19.8019 11.0133 20 10.2797 20 9.5C20 5.91015 17.0899 3 13.5 3ZM18.0236 14.9898C18.1722 15.0703 18.3356 15.1103 18.4987 15.1105C18.4775 15.5195 18.208 15.8766 17.8162 16.0072L17.2034 16.2115L17.0481 16.6935C16.1834 19.3786 14.427 21.0007 12 21.0007C9.57301 21.0007 7.81657 19.3786 6.95186 16.6935L6.79663 16.2115L6.18377 16.0072C5.79197 15.8766 5.52253 15.5195 5.50135 15.1105C5.66441 15.1103 5.82778 15.0703 5.97635 14.9898C6.29901 14.815 6.5 14.4775 6.5 14.1105V11.0355C6.5 9.6352 7.6352 8.5 9.03553 8.5C9.708 8.5 10.3529 8.76714 10.8284 9.24264L11.7929 10.2071C11.9804 10.3946 12.2348 10.5 12.5 10.5C13.7986 10.5 15.0525 10.0666 16.0684 9.27997C16.9688 10.0603 17.5 11.2008 17.5 12.4155V14.1105C17.5 14.4775 17.701 14.815 18.0236 14.9898Z" fill="black"/>
</svg>
