<svg width="24" height="24" viewBox="0 0 24 24" fill="none" xmlns="http://www.w3.org/2000/svg">
<path fill-rule="evenodd" clip-rule="evenodd" d="M13.4696 2.61805C12.6777 1.76013 11.3223 1.76013 10.5304 2.61805L5.56255 7.99988H3.5C2.11929 7.99988 1 9.11917 1 10.4999C1 11.8243 2.02982 12.9081 3.33236 12.9943L4.5822 20.4934C4.82329 21.9399 6.07486 23.0002 7.54138 23.0002H9.98552C9.99433 23.0003 10.0032 23.0003 10.012 23.0002H13.988C13.9968 23.0003 14.0057 23.0003 14.0145 23.0002H16.4586C17.9251 23.0002 19.1767 21.9399 19.4178 20.4934L20.6676 12.9943C21.9702 12.9081 23 11.8243 23 10.4999C23 9.11917 21.8807 7.99988 20.5 7.99988H18.4374L13.4696 2.61805ZM17.9712 9.99988C17.9905 10.0004 18.0099 10.0004 18.0293 9.99988H20.5C20.7761 9.99988 21 10.2237 21 10.4999C21 10.776 20.7761 10.9999 20.5 10.9999H3.5C3.22386 10.9999 3 10.776 3 10.4999C3 10.2237 3.22386 9.99988 3.5 9.99988H5.97066C5.99005 10.0004 6.00946 10.0004 6.02885 9.99988H17.9712ZM15.7156 7.99988L12 3.97461L8.28437 7.99988H15.7156ZM16.4586 21.0002H15.1173L15.4506 18.0002H17.8057L17.445 20.1646C17.3646 20.6468 16.9475 21.0002 16.4586 21.0002ZM18.1391 16.0002H15.6728L15.9939 13.1106C15.998 13.0735 16 13.0367 16.0001 13.0002H18.6391L18.1391 16.0002ZM13.6605 16.0002L13.9938 13.0002H10.0062L10.3395 16.0002H13.6605ZM13.105 21.0002L13.4383 18.0002H10.5617L10.895 21.0002H13.105ZM8.5494 18.0002L8.88273 21.0002H7.54138C7.05254 21.0002 6.63535 20.6468 6.55499 20.1646L6.19425 18.0002H8.5494ZM7.99991 13.0002C7.99996 13.0367 8.00199 13.0735 8.00612 13.1106L8.32718 16.0002H5.86092L5.36092 13.0002H7.99991Z" fill="black"/>
</svg>
