<svg width="24" height="24" viewBox="0 0 24 24" fill="none" xmlns="http://www.w3.org/2000/svg">
<g clip-path="url(#clip0_6859_22909)">
<path fill-rule="evenodd" clip-rule="evenodd" d="M5.75643 16.8294C5.0214 16.6726 4.38694 16.5033 3.85841 16.3428L3.85303 16.3412C3.79984 16.325 3.74772 16.3089 3.69668 16.293C2.88051 16.0377 2.76149 15.0327 3.44561 14.5196C4.79177 13.51 5.58632 11.9278 5.59288 10.246V8.36364C5.59288 4.8491 8.44198 2 11.9565 2C14.295 2 16.3389 3.26137 17.4449 5.14084L19.2929 3.29289C19.6834 2.90237 20.3166 2.90237 20.7071 3.29289C21.0976 3.68342 21.0976 4.31658 20.7071 4.70711L4.70711 20.7071C4.31658 21.0976 3.68342 21.0976 3.29289 20.7071C2.90237 20.3166 2.90237 19.6834 3.29289 19.2929L5.75643 16.8294ZM7.4721 15.1137C7.37944 15.099 7.28809 15.0841 7.19804 15.0689C6.77284 14.9969 6.3768 14.9188 6.01077 14.838C7.02326 13.5971 7.59289 12.0321 7.59289 10.3964V10.2496L7.59293 10.2249V8.36364C7.59293 6.2302 9.12397 4.45436 11.1472 4.07491C11.3916 4.02907 11.6432 4.00361 11.9002 4.00036C11.9189 4.00012 11.9377 4 11.9565 4C13.7487 4 15.2886 5.08045 15.9603 6.62552L7.4721 15.1137Z" fill="black"/>
<path d="M10.6905 17.4302L12.6745 15.4463C14.397 15.4064 15.8792 15.2267 17.0979 15.0011C17.3803 14.9488 17.6485 14.8941 17.9023 14.838C17.1591 13.9272 16.6546 12.8418 16.4387 11.682L18.3202 9.80056V10.2249C18.3202 11.9147 19.1157 13.5058 20.4675 14.5196C21.1516 15.0327 21.0326 16.0377 20.2164 16.293C20.1124 16.3255 20.0038 16.3585 19.8908 16.3918C19.6193 16.4718 19.3222 16.5534 19 16.6341C18.3832 16.7885 17.6746 16.9395 16.8787 17.069C15.4942 17.2943 13.8455 17.4545 11.9566 17.4545C11.7205 17.4545 11.4881 17.452 11.2595 17.4472C11.0671 17.4432 10.8775 17.4375 10.6905 17.4302Z" fill="black"/>
<path d="M9.27224 18.8485L8.53192 19.5888C9.03478 20.9944 10.3783 22 11.9567 22C13.8311 22 15.3742 20.5819 15.5717 18.7601C14.9207 18.8317 14.2283 18.8871 13.496 18.9201C13.2683 19.5499 12.6651 20 11.9567 20C11.2484 20 10.6451 19.5499 10.4174 18.9201C10.0241 18.9024 9.64231 18.8782 9.27224 18.8485Z" fill="black"/>
</g>
<defs>
<clipPath id="clip0_6859_22909">
<rect width="24" height="24" fill="white"/>
</clipPath>
</defs>
</svg>
