<svg width="24" height="24" viewBox="0 0 24 24" fill="none" xmlns="http://www.w3.org/2000/svg">
<g clip-path="url(#clip0_156_25471)">
<path fill-rule="evenodd" clip-rule="evenodd" d="M3.89649 16.3412C3.84329 16.325 3.79118 16.3089 3.74014 16.293C2.92397 16.0377 2.80494 15.0327 3.48906 14.5196C4.83523 13.51 5.62978 11.9278 5.63634 10.246V8.36364C5.63634 4.8491 8.48544 2 12 2C15.5145 2 18.3637 4.8491 18.3637 8.36364V10.2249C18.3637 11.9147 19.1592 13.5058 20.511 14.5196C21.1951 15.0327 21.0761 16.0377 20.2599 16.293C20.1558 16.3255 20.0472 16.3585 19.9342 16.3918C19.6628 16.4718 19.3656 16.5534 19.0435 16.6341C18.4266 16.7885 17.718 16.9395 16.9222 17.069C15.5376 17.2943 13.889 17.4545 12 17.4545C12 17.4545 12 17.4545 12 17.4545C11.7639 17.4545 11.5315 17.452 11.303 17.4472C9.49203 17.409 7.91972 17.2254 6.60913 16.9886C5.52236 16.7923 4.61555 16.5595 3.90186 16.3428C3.90007 16.3423 3.89828 16.3417 3.89649 16.3412ZM7.2415 15.0689C8.55713 15.2914 10.1519 15.4545 12 15.4545C14.0313 15.4545 15.7564 15.2575 17.1414 15.0011C17.4237 14.9488 17.6919 14.8941 17.9457 14.838C16.9332 13.5971 16.3636 12.0321 16.3636 10.3964V8.36364C16.3636 5.95367 14.4099 4 12 4C11.9812 4 11.9624 4.00012 11.9436 4.00036C11.6867 4.00361 11.4351 4.02907 11.1907 4.07491C9.16742 4.45436 7.63638 6.2302 7.63638 8.36364V10.2249C7.63638 10.2331 7.63637 10.2414 7.63634 10.2496V10.3964C7.63634 12.0321 7.06672 13.5971 6.05423 14.838C6.42025 14.9188 6.8163 14.9969 7.2415 15.0689Z" fill="black"/>
<path d="M12.0002 20C12.7086 20 13.3118 19.5499 13.5395 18.9201C14.2718 18.8871 14.9642 18.8317 15.6152 18.7601C15.4177 20.5819 13.8745 22 12.0002 22C10.1258 22 8.58271 20.5819 8.38519 18.7601C9.0362 18.8317 9.72862 18.8871 10.4609 18.9201C10.6886 19.5499 11.2918 20 12.0002 20Z" fill="black"/>
</g>
<defs>
<clipPath id="clip0_156_25471">
<rect width="24" height="24" fill="white"/>
</clipPath>
</defs>
</svg>
