<svg width="24" height="24" viewBox="0 0 24 24" fill="none" xmlns="http://www.w3.org/2000/svg">
<g clip-path="url(#clip0_6859_22785)">
<path fill-rule="evenodd" clip-rule="evenodd" d="M3.74014 16.293C3.79118 16.3089 3.84329 16.325 3.89649 16.3412L3.90186 16.3428C4.61555 16.5595 5.52236 16.7923 6.60913 16.9886C7.91972 17.2254 9.49203 17.409 11.303 17.4472C11.5315 17.452 11.7639 17.4545 12 17.4545C13.8889 17.4545 15.5376 17.2943 16.9222 17.069C17.718 16.9395 18.4266 16.7885 19.0435 16.6341C19.3656 16.5534 19.6628 16.4718 19.9342 16.3918C20.0472 16.3585 20.1558 16.3255 20.2599 16.293C21.0761 16.0377 21.1951 15.0327 20.511 14.5196C19.1592 13.5058 18.3637 11.9147 18.3637 10.2249V8.36364C18.3637 4.8491 15.5146 2 12 2C8.48548 2 5.63634 4.8491 5.63634 8.36364V10.246C5.62978 11.9278 4.83523 13.51 3.48906 14.5196C2.80494 15.0327 2.92397 16.0377 3.74014 16.293ZM12 15.4545C10.1519 15.4545 8.55713 15.2914 7.2415 15.0689C6.8163 14.9969 6.42026 14.9188 6.05423 14.838C7.06672 13.5971 7.63634 12.0321 7.63634 10.3964V10.2496L7.63638 10.2249V8.36364C7.63638 6.2302 9.16742 4.45436 11.1907 4.07491C11.4351 4.02907 11.6867 4.00361 11.9436 4.00036C11.9624 4.00012 11.9812 4 12 4C14.4099 4 16.3636 5.95367 16.3636 8.36364V10.3964C16.3636 12.0321 16.9332 13.5971 17.9457 14.838C17.6919 14.8941 17.4237 14.9488 17.1414 15.0011C15.7564 15.2575 14.0313 15.4545 12 15.4545Z" fill="black"/>
<path d="M13.5395 18.9201C13.3118 19.5499 12.7086 20 12.0002 20C11.2918 20 10.6886 19.5499 10.4609 18.9201C9.72862 18.8871 9.0362 18.8317 8.38519 18.7601C8.58271 20.5819 10.1258 22 12.0002 22C13.8745 22 15.4177 20.5819 15.6152 18.7601C14.9642 18.8317 14.2718 18.8871 13.5395 18.9201Z" fill="black"/>
<path d="M5.33273 3.57687C5.63852 3.11696 5.51358 2.49625 5.05367 2.19046C4.59377 1.88467 3.97305 2.00961 3.66727 2.46952C2.6138 4.05394 2 5.95675 2 7.99989C2 8.55217 2.44772 8.99989 3 8.99989C3.55228 8.99989 4 8.55217 4 7.99989C4 6.36281 4.49066 4.84336 5.33273 3.57687Z" fill="black"/>
<path d="M20.3327 2.46952C20.0269 2.00961 19.4062 1.88467 18.9463 2.19046C18.4864 2.49625 18.3615 3.11696 18.6673 3.57687C19.5093 4.84336 20 6.36281 20 7.99989C20 8.55217 20.4477 8.99989 21 8.99989C21.5523 8.99989 22 8.55217 22 7.99989C22 5.95675 21.3862 4.05394 20.3327 2.46952Z" fill="black"/>
</g>
<defs>
<clipPath id="clip0_6859_22785">
<rect width="24" height="24" fill="white"/>
</clipPath>
</defs>
</svg>
