<svg width="24" height="24" viewBox="0 0 24 24" fill="none" xmlns="http://www.w3.org/2000/svg">
<path d="M12 2C12.1716 2 12.3417 2.00679 12.5099 2.02013C11.9899 2.60632 11.583 3.29506 11.3232 4.05217C9.23466 4.37737 7.63638 6.18386 7.63638 8.36364V10.2249C7.63638 11.9172 7.05499 13.5375 6.01984 14.8304C7.52214 15.1645 9.53582 15.4545 12 15.4545C14.4642 15.4545 16.4779 15.1645 17.9802 14.8304C17.3118 13.9956 16.8326 13.0243 16.577 11.9853C16.7167 11.9951 16.8578 12 17 12C17.5524 12 18.0874 11.9253 18.5955 11.7856C18.9234 12.8646 19.5873 13.8269 20.511 14.5196C21.1951 15.0327 21.0761 16.0377 20.2599 16.293C18.5946 16.8137 15.7779 17.4545 12 17.4545C8.2221 17.4545 5.4054 16.8137 3.74014 16.293C2.92397 16.0377 2.80494 15.0327 3.48906 14.5196C4.84083 13.5058 5.63638 11.9147 5.63638 10.2249V8.36364C5.63638 4.8491 8.48548 2 12 2Z" fill="black"/>
<path d="M13.5395 18.9201C13.3118 19.5499 12.7086 20 12.0002 20C11.2918 20 10.6886 19.5499 10.4609 18.9201C9.72862 18.8871 9.0362 18.8317 8.38519 18.7601C8.58271 20.5819 10.1258 22 12.0002 22C13.8745 22 15.4177 20.5819 15.6152 18.7601C14.9642 18.8317 14.2718 18.8871 13.5395 18.9201Z" fill="black"/>
<path d="M17 10C19.2091 10 21 8.20914 21 6C21 3.79086 19.2091 2 17 2C14.7909 2 13 3.79086 13 6C13 8.20914 14.7909 10 17 10Z" fill="black"/>
</svg>
