<svg width="24" height="24" viewBox="0 0 24 24" fill="none" xmlns="http://www.w3.org/2000/svg">
<g clip-path="url(#clip0_6860_26655)">
<path fill-rule="evenodd" clip-rule="evenodd" d="M11.6174 2.07615C11.991 1.92137 12.4211 2.00692 12.7071 2.29292L17.7071 7.29292C17.9083 7.49405 18.0142 7.77132 17.9985 8.05532C17.9828 8.33933 17.8469 8.6032 17.6247 8.78089L13.6008 12.0001L17.6247 15.2192C17.8468 15.3968 17.9828 15.6607 17.9985 15.9447C18.0142 16.2287 17.9083 16.506 17.7071 16.7071L12.7071 21.7071C12.4211 21.9931 11.991 22.0787 11.6174 21.9239C11.2437 21.7691 11 21.4045 11 21V14.0808L7.62474 16.7811C7.19348 17.1261 6.56419 17.0562 6.21918 16.6249C5.87416 16.1937 5.94407 15.5644 6.37533 15.2194L10.3993 12.0002L6.37535 8.78112C5.94409 8.43611 5.87416 7.80682 6.21916 7.37555C6.56416 6.94429 7.19346 6.87436 7.62472 7.21936L11 9.91954V3.00003C11 2.59557 11.2437 2.23093 11.6174 2.07615ZM13 14.0807L15.5029 16.083L13 18.5858V14.0807ZM13 9.91947V5.41424L15.5029 7.91712L13 9.91947Z" fill="black"/>
</g>
<defs>
<clipPath id="clip0_6860_26655">
<rect width="24" height="24" fill="white"/>
</clipPath>
</defs>
</svg>
