<svg width="24" height="24" viewBox="0 0 24 24" fill="none" xmlns="http://www.w3.org/2000/svg">
<g clip-path="url(#clip0_159_50027)">
<path fill-rule="evenodd" clip-rule="evenodd" d="M16.5 12C16.5 14.4853 14.4853 16.5 12 16.5C9.51472 16.5 7.5 14.4853 7.5 12C7.5 9.51472 9.51472 7.5 12 7.5C14.4853 7.5 16.5 9.51472 16.5 12ZM14.5 12C14.5 13.3807 13.3807 14.5 12 14.5C10.6193 14.5 9.5 13.3807 9.5 12C9.5 10.6193 10.6193 9.5 12 9.5C13.3807 9.5 14.5 10.6193 14.5 12Z" fill="black"/>
<path fill-rule="evenodd" clip-rule="evenodd" d="M13.8378 2H10.1624C8.87108 2 7.72466 2.82629 7.31632 4.05132L7.00009 5H5.15326C3.82269 5 2.659 5.87958 2.43821 7.1917C2.21651 8.50918 2 10.347 2 12.5C2 14.653 2.21651 16.4908 2.43821 17.8083C2.659 19.1204 3.82269 20 5.15326 20H18.8467C20.1773 20 21.341 19.1204 21.5618 17.8083C21.7835 16.4908 22 14.653 22 12.5C22 10.347 21.7835 8.50918 21.5618 7.1917C21.341 5.87958 20.1773 5 18.8467 5H17.0001L16.6839 4.05132C16.2755 2.82629 15.1291 2 13.8378 2ZM8.44161 7L9.21368 4.68377C9.3498 4.27543 9.73194 4 10.1624 4H13.8378C14.2682 4 14.6504 4.27543 14.7865 4.68377L15.5586 7H18.8467C19.3158 7 19.5491 7.28354 19.5895 7.52358C19.7965 8.75354 20 10.4786 20 12.5C20 14.5214 19.7965 16.2465 19.5895 17.4764C19.5491 17.7165 19.3158 18 18.8467 18H5.15326C4.68422 18 4.45087 17.7165 4.41048 17.4764C4.20351 16.2465 4 14.5214 4 12.5C4 10.4786 4.20351 8.75354 4.41048 7.52358C4.45087 7.28354 4.68422 7 5.15326 7H8.44161Z" fill="black"/>
</g>
<defs>
<clipPath id="clip0_159_50027">
<rect width="24" height="24" fill="white"/>
</clipPath>
</defs>
</svg>
