<svg width="24" height="24" viewBox="0 0 24 24" fill="none" xmlns="http://www.w3.org/2000/svg">
<g clip-path="url(#clip0_6860_26411)">
<path d="M12 4C9.97153 4 8.11907 4.75451 6.70816 6H8C8.55228 6 9 6.44772 9 7C9 7.55228 8.55228 8 8 8H4.5291C4.51946 8.00014 4.50981 8.00014 4.50016 8H4C3.44772 8 3 7.55228 3 7V3C3 2.44772 3.44772 2 4 2C4.55228 2 5 2.44772 5 3V4.8587C6.80298 3.09134 9.27392 2 12 2C17.5228 2 22 6.47715 22 12C22 17.5228 17.5228 22 12 22C6.47715 22 2 17.5228 2 12C2 11.4477 2.44772 11 3 11C3.55228 11 4 11.4477 4 12C4 16.4183 7.58172 20 12 20C16.4183 20 20 16.4183 20 12C20 7.58172 16.4183 4 12 4Z" fill="black"/>
<path d="M13 7C13 6.44772 12.5523 6 12 6C11.4477 6 11 6.44772 11 7V12C11 12.2652 11.1054 12.5196 11.2929 12.7071L14.2929 15.7071C14.6834 16.0976 15.3166 16.0976 15.7071 15.7071C16.0976 15.3166 16.0976 14.6834 15.7071 14.2929L13 11.5858V7Z" fill="black"/>
</g>
<defs>
<clipPath id="clip0_6860_26411">
<rect width="24" height="24" fill="white"/>
</clipPath>
</defs>
</svg>
