<svg width="24" height="24" viewBox="0 0 24 24" fill="none" xmlns="http://www.w3.org/2000/svg">
<g clip-path="url(#clip0_8_9054)">
<path d="M14.9285 7.37141C15.1336 6.85863 14.8842 6.27666 14.3714 6.07155C13.8586 5.86643 13.2766 6.11585 13.0715 6.62863L9.07152 16.6286C8.86641 17.1414 9.11583 17.7234 9.62861 17.9285C10.1414 18.1336 10.7234 17.8842 10.9285 17.3714L14.9285 7.37141Z" fill="black"/>
<path d="M3.29289 12.7071C2.90237 12.3166 2.90237 11.6834 3.29289 11.2929L6.29289 8.29292C6.68342 7.90239 7.31658 7.90239 7.70711 8.29292C8.09763 8.68344 8.09763 9.3166 7.70711 9.70713L5.41421 12L7.70711 14.2929C8.09763 14.6834 8.09763 15.3166 7.70711 15.7071C7.31658 16.0977 6.68342 16.0977 6.29289 15.7071L3.29289 12.7071Z" fill="black"/>
<path d="M20.7071 11.2929L17.7071 8.29292C17.3166 7.90239 16.6834 7.90239 16.2929 8.29292C15.9024 8.68344 15.9024 9.3166 16.2929 9.70713L18.5858 12L16.2929 14.2929C15.9024 14.6834 15.9024 15.3166 16.2929 15.7071C16.6834 16.0977 17.3166 16.0977 17.7071 15.7071L20.7071 12.7071C21.0976 12.3166 21.0976 11.6834 20.7071 11.2929Z" fill="black"/>
</g>
<defs>
<clipPath id="clip0_8_9054">
<rect width="24" height="24" fill="white"/>
</clipPath>
</defs>
</svg>
