<svg width="24" height="24" viewBox="0 0 24 24" fill="none" xmlns="http://www.w3.org/2000/svg">
<g clip-path="url(#clip0_1810_6885)">
<path d="M10.0001 10C10.5524 10 11.0001 10.4477 11.0001 11V17C11.0001 17.5523 10.5524 18 10.0001 18C9.44784 18 9.00012 17.5523 9.00012 17V11C9.00012 10.4477 9.44784 10 10.0001 10Z" fill="black"/>
<path d="M14.0001 10C14.5524 10 15.0001 10.4477 15.0001 11V17C15.0001 17.5523 14.5524 18 14.0001 18C13.4478 18 13.0001 17.5523 13.0001 17V11C13.0001 10.4477 13.4478 10 14.0001 10Z" fill="black"/>
<path fill-rule="evenodd" clip-rule="evenodd" d="M8.91802 2.91789C9.43336 2.40255 10.1749 2 11.0001 2H13.0001C13.8254 2 14.5669 2.40255 15.0822 2.91789C15.5976 3.43324 16.0001 4.17477 16.0001 5V5.5C16.0001 5.53436 15.9984 5.56832 15.995 5.60179C16.8148 5.64601 17.5143 5.70006 18.0935 5.75437C18.7756 5.81831 19.2909 5.88261 19.6394 5.93162C19.8137 5.95612 19.9462 5.9768 20.0371 5.99171C20.0825 5.99916 20.1175 6.00517 20.1421 6.00949L20.1711 6.01467L20.1797 6.01625L20.1837 6.01697C20.7265 6.11875 21.0848 6.64146 20.9831 7.18429C20.8813 7.72684 20.3593 8.08429 19.8167 7.98303L19.8137 7.98247L19.7958 7.97928C19.7787 7.97628 19.7512 7.97154 19.7133 7.96532C19.6375 7.95288 19.52 7.9345 19.3609 7.91213C19.2581 7.89767 19.1378 7.88153 19.0001 7.86426V18.25C19.0001 20.0221 17.7868 21.6568 15.8726 21.8377C14.9103 21.9286 13.6343 22 12.0001 22C10.3659 22 9.08996 21.9286 8.12768 21.8377C6.21343 21.6568 5.00012 20.0221 5.00012 18.25V7.86427C4.8625 7.88154 4.74227 7.89767 4.63943 7.91213C4.48035 7.9345 4.3629 7.95288 4.28708 7.96532C4.24916 7.97154 4.22166 7.97628 4.20456 7.97928L4.18671 7.98247L4.18447 7.98287C3.6417 8.08455 3.11908 7.72706 3.01731 7.18429C2.91553 6.64146 3.27307 6.11891 3.81589 6.01713L3.81777 6.01678L3.82063 6.01625L3.82928 6.01467L3.8583 6.00949C3.88287 6.00517 3.91786 5.99916 3.96328 5.99171C4.05412 5.9768 4.18667 5.95612 4.36092 5.93162C4.70944 5.88261 5.22475 5.81831 5.90684 5.75437C6.48607 5.70006 7.18553 5.64602 8.00524 5.6018C8.00186 5.56833 8.00012 5.53436 8.00012 5.5V5C8.00012 4.17477 8.40267 3.43324 8.91802 2.91789ZM14.0001 5.5L14.0004 5.52421C13.3803 5.50884 12.7135 5.5 12.0002 5.5C11.2868 5.5 10.62 5.50884 9.99983 5.52422L10.0001 5.5V5C10.0001 4.82523 10.0976 4.56676 10.3322 4.33211C10.5669 4.09745 10.8254 4 11.0001 4H13.0001C13.1749 4 13.4334 4.09745 13.668 4.33211C13.9027 4.56676 14.0001 4.82523 14.0001 5V5.5ZM9.03942 7.55584C9.90939 7.52167 10.8963 7.5 12.0002 7.5C13.104 7.5 14.091 7.52167 14.9609 7.55584C15.7327 7.58614 16.4124 7.62627 17.0001 7.66982V18.25C17.0001 19.1445 16.4251 19.7766 15.6845 19.8466C14.7892 19.9311 13.5762 20 12.0001 20C10.424 20 9.21103 19.9311 8.31578 19.8466C7.57518 19.7766 7.00012 19.1445 7.00012 18.25V7.66983C7.58788 7.62628 8.26764 7.58614 9.03942 7.55584Z" fill="black"/>
</g>
<defs>
<clipPath id="clip0_1810_6885">
<rect width="24" height="24" fill="white"/>
</clipPath>
</defs>
</svg>
