<svg width="24" height="24" viewBox="0 0 24 24" fill="none" xmlns="http://www.w3.org/2000/svg">
<g clip-path="url(#clip0_19_22469)">
<path d="M8.5 11C9.32843 11 10 10.3284 10 9.5C10 8.67157 9.32843 8 8.5 8C7.67157 8 7 8.67157 7 9.5C7 10.3284 7.67157 11 8.5 11Z" fill="black"/>
<path d="M16 14.5C16 15.3284 15.3284 16 14.5 16C13.6716 16 13 15.3284 13 14.5C13 13.6716 13.6716 13 14.5 13C15.3284 13 16 13.6716 16 14.5Z" fill="black"/>
<path d="M9 17C10.1046 17 11 16.1046 11 15C11 13.8954 10.1046 13 9 13C7.89543 13 7 13.8954 7 15C7 16.1046 7.89543 17 9 17Z" fill="black"/>
<path fill-rule="evenodd" clip-rule="evenodd" d="M12 1C5.92368 1 1 5.92455 1 11.9977C1 18.0702 5.92308 23 12 23C18.0766 23 23 18.0751 23 11.9977C23 11.3529 22.9324 10.734 22.8329 10.1465C22.7676 9.76156 22.4843 9.44976 22.1073 9.3481C21.7303 9.24644 21.3286 9.37352 21.0786 9.67352C20.7732 10.0402 20.3127 10.2739 19.7968 10.2739C19.246 10.2739 18.7595 10.0078 18.4508 9.58731C18.2188 9.27127 17.8235 9.11996 17.4398 9.2003C17.3043 9.22866 17.1643 9.24403 17.0232 9.24403C15.9142 9.24403 15.013 8.34556 15.013 7.23312C15.013 7.08732 15.0331 6.93163 15.0712 6.7652C15.1755 6.31024 14.9511 5.84369 14.5307 5.64104C13.9646 5.36822 13.5798 4.79416 13.5798 4.13872C13.5798 3.63443 13.8009 3.1881 14.1552 2.88313C14.4514 2.62816 14.5719 2.22401 14.4637 1.84847C14.3555 1.47292 14.0385 1.19481 13.6521 1.13647C13.1294 1.05756 12.5759 1 12 1ZM17.2454 11.2378C17.9033 11.8765 18.8005 12.2739 19.7968 12.2739C20.2183 12.2739 20.6231 12.2026 20.9997 12.0718C20.9599 17.011 16.9469 21 12 21C7.02869 21 3 16.9667 3 11.9977C3 7.10976 6.89866 3.13076 11.7592 3.00316C11.6428 3.36035 11.5798 3.74198 11.5798 4.13872C11.5798 5.32609 12.1474 6.37706 13.0178 7.04559C13.0147 7.10734 13.013 7.16987 13.013 7.23312C13.013 9.4517 14.8112 11.244 17.0232 11.244C17.0979 11.244 17.172 11.2419 17.2454 11.2378Z" fill="black"/>
</g>
<defs>
<clipPath id="clip0_19_22469">
<rect width="24" height="24" fill="white"/>
</clipPath>
</defs>
</svg>
