<svg width="24" height="24" viewBox="0 0 24 24" fill="none" xmlns="http://www.w3.org/2000/svg">
<path fill-rule="evenodd" clip-rule="evenodd" d="M12.6322 2.63561C12.7879 3.02741 12.6811 3.47476 12.3653 3.75403C10.9132 5.03803 10 6.91178 10 9.00007C10 10.0502 10.2312 11.0463 10.6456 11.9403L19.2929 3.29295C19.6834 2.90243 20.3166 2.90243 20.7071 3.29295C21.0976 3.68348 21.0976 4.31664 20.7071 4.70716L4.70711 20.7072C4.31658 21.0977 3.68342 21.0977 3.29289 20.7072C2.90237 20.3166 2.90237 19.6835 3.29289 19.2929L4.25705 18.3288C2.84636 16.6049 2 14.4013 2 12.0001C2 6.5875 6.29982 2.1796 11.6705 2.00541C12.0918 1.99175 12.4765 2.24382 12.6322 2.63561ZM5.68014 16.9057L9.16101 13.4248C8.42188 12.1182 8 10.6084 8 9.00007C8 7.36195 8.43811 5.8257 9.20281 4.50262C6.16415 5.63681 4 8.56583 4 12.0001C4 13.8488 4.62708 15.551 5.68014 16.9057Z" fill="black"/>
<path d="M11.8103 16.354L13.2514 14.9128C14.3352 15.6013 15.621 16.0001 17 16.0001C17.8629 16.0001 18.6872 15.8444 19.4478 15.5604C19.8432 15.4129 20.2886 15.5293 20.5611 15.8515C20.8336 16.1738 20.8745 16.6323 20.6634 16.9977C18.9363 19.9858 15.7039 22.0001 12 22.0001C10.3104 22.0001 8.71866 21.581 7.32305 20.8412L8.82082 19.3435C9.79526 19.7659 10.8703 20.0001 12 20.0001C14.031 20.0001 15.8858 19.2435 17.2973 17.9952C17.1986 17.9984 17.0995 18.0001 17 18.0001C15.0673 18.0001 13.2769 17.3909 11.8103 16.354Z" fill="black"/>
</svg>
