<svg width="24" height="24" viewBox="0 0 24 24" fill="none" xmlns="http://www.w3.org/2000/svg">
<g clip-path="url(#clip0_1810_7081)">
<path fill-rule="evenodd" clip-rule="evenodd" d="M11.0992 2.70621C11.307 3.0958 11.2347 3.57556 10.9213 3.88659C9.73363 5.06533 9 6.69616 9 8.5002C9 12.09 11.9101 15.0002 15.5 15.0002C17.304 15.0002 18.9349 14.2666 20.1136 13.0789C20.4246 12.7655 20.9044 12.6932 21.294 12.901C21.6836 13.1088 21.8908 13.5475 21.8038 13.9804C20.8844 18.5547 16.8457 22.0002 12 22.0002C6.47715 22.0002 2 17.523 2 12.0002C2 7.15452 5.44555 3.11582 10.0198 2.19643C10.4527 2.10943 10.8914 2.31662 11.0992 2.70621ZM7.62206 5.30304C5.44079 6.73207 4 9.19846 4 12.0002C4 16.4185 7.58172 20.0002 12 20.0002C14.8017 20.0002 17.2681 18.5594 18.6972 16.3781C17.7101 16.7791 16.6307 17.0002 15.5 17.0002C10.8056 17.0002 7 13.1946 7 8.5002C7 7.36953 7.22106 6.29008 7.62206 5.30304Z" fill="black"/>
</g>
<defs>
<clipPath id="clip0_1810_7081">
<rect width="24" height="24" fill="white"/>
</clipPath>
</defs>
</svg>
