<svg width="24" height="24" viewBox="0 0 24 24" fill="none" xmlns="http://www.w3.org/2000/svg">
<g clip-path="url(#clip0_1810_7375)">
<path d="M12 2C11.4477 2 11 2.44772 11 3V6C11 6.55228 11.4477 7 12 7C12.5523 7 13 6.55228 13 6V3C13 2.44772 12.5523 2 12 2Z" fill="black"/>
<path d="M12 17C11.4477 17 11 17.4477 11 18V21C11 21.5523 11.4477 22 12 22C12.5523 22 13 21.5523 13 21V18C13 17.4477 12.5523 17 12 17Z" fill="black"/>
<path d="M7.05022 15.5356C7.44074 15.145 8.07391 15.145 8.46443 15.5356C8.85496 15.9261 8.85496 16.5593 8.46443 16.9498L6.34311 19.0711C5.95259 19.4616 5.31942 19.4616 4.9289 19.0711C4.53837 18.6806 4.53837 18.0474 4.9289 17.6569L7.05022 15.5356Z" fill="black"/>
<path d="M19.0711 4.92888C18.6806 4.53836 18.0474 4.53836 17.6569 4.92888L15.5356 7.0502C15.1451 7.44072 15.1451 8.07389 15.5356 8.46441C15.9261 8.85494 16.5593 8.85494 16.9498 8.46441L19.0711 6.34309C19.4616 5.95257 19.4616 5.3194 19.0711 4.92888Z" fill="black"/>
<path d="M6 11C6.55228 11 7 11.4477 7 12C7 12.5523 6.55228 13 6 13H3C2.44772 13 2 12.5523 2 12C2 11.4477 2.44772 11 3 11H6Z" fill="black"/>
<path d="M22.0001 12C22.0001 11.4477 21.5524 11 21.0001 11H18.0001C17.4478 11 17.0001 11.4477 17.0001 12C17.0001 12.5523 17.4478 13 18.0001 13H21.0001C21.5524 13 22.0001 12.5523 22.0001 12Z" fill="black"/>
<path d="M19.0711 17.6569C19.4616 18.0474 19.4616 18.6806 19.0711 19.0711C18.6806 19.4616 18.0474 19.4616 17.6569 19.0711L15.5356 16.9498C15.1451 16.5593 15.1451 15.9261 15.5356 15.5356C15.9261 15.1451 16.5593 15.1451 16.9498 15.5356L19.0711 17.6569Z" fill="black"/>
</g>
<defs>
<clipPath id="clip0_1810_7375">
<rect width="24" height="24" fill="white"/>
</clipPath>
</defs>
</svg>
