<svg width="24" height="24" viewBox="0 0 24 24" fill="none" xmlns="http://www.w3.org/2000/svg">
<path d="M6 10C6 9.44772 6.44772 9 7 9H12C12.5523 9 13 9.44772 13 10C13 10.5523 12.5523 11 12 11H7C6.44772 11 6 10.5523 6 10Z" fill="black"/>
<path d="M15 10C15 9.44772 15.4477 9 16 9H17C17.5523 9 18 9.44772 18 10C18 10.5523 17.5523 11 17 11H16C15.4477 11 15 10.5523 15 10Z" fill="black"/>
<path d="M6 14C6 13.4477 6.44772 13 7 13H8C8.55228 13 9 13.4477 9 14C9 14.5523 8.55228 15 8 15H7C6.44772 15 6 14.5523 6 14Z" fill="black"/>
<path d="M11 14C11 13.4477 11.4477 13 12 13H17C17.5523 13 18 13.4477 18 14C18 14.5523 17.5523 15 17 15H12C11.4477 15 11 14.5523 11 14Z" fill="black"/>
<path fill-rule="evenodd" clip-rule="evenodd" d="M12 22C17.5228 22 22.5 17.5228 22.5 12C22.5 6.5 17.5228 2 12 2C6.47715 2 1.5 6.47715 1.5 12C1.5 14.7523 2.73612 17.245 4.65986 19.0532C4.87168 19.2523 5 19.5267 5 19.8174V21.6962C5 22.569 5.87172 23.1731 6.6889 22.8667L9.41416 21.8447C9.59727 21.776 9.79625 21.7638 9.98809 21.8018C10.6449 21.9318 11.3183 22 12 22ZM20.5 12C20.5 16.2945 16.5462 20 12 20C11.4518 20 10.9084 19.9452 10.3764 19.8399C9.849 19.7355 9.27003 19.7627 8.71191 19.972L7 20.614V19.8174C7 18.9304 6.61011 18.1415 6.02964 17.5959C4.45719 16.1179 3.5 14.1343 3.5 12C3.5 7.70545 7.45379 4 12 4C16.5431 4 20.5 7.72543 20.5 12Z" fill="black"/>
</svg>
