<svg width="24" height="24" viewBox="0 0 24 24" fill="none" xmlns="http://www.w3.org/2000/svg">
<path d="M13 6C13 5.44772 12.5523 5 12 5C11.4477 5 11 5.44772 11 6V9C11 9.55228 11.4477 10 12 10C12.5523 10 13 9.55228 13 9V6Z" fill="black"/>
<path fill-rule="evenodd" clip-rule="evenodd" d="M5 8C5 4.13401 8.13401 1 12 1C15.866 1 19 4.13401 19 8V16C19 19.866 15.866 23 12 23C8.13401 23 5 19.866 5 16V8ZM17 8V16C17 18.7614 14.7614 21 12 21C9.23858 21 7 18.7614 7 16V8C7 5.23858 9.23858 3 12 3C14.7614 3 17 5.23858 17 8Z" fill="black"/>
</svg>
