<svg width="24" height="24" viewBox="0 0 24 24" fill="none" xmlns="http://www.w3.org/2000/svg">
<path fill-rule="evenodd" clip-rule="evenodd" d="M11.8663 2.66211C12.4185 2.66211 12.8663 3.10982 12.8663 3.66211V4.99777L12.8662 5.00526C14.0114 5.13185 15.0573 5.50243 16.2023 6.21666C16.6709 6.50896 16.8138 7.12579 16.5215 7.59438C16.2292 8.06297 15.6124 8.20589 15.1438 7.91359C13.9979 7.1988 13.0654 6.9541 11.8954 6.9541H11.686C10.6132 6.9541 9.9066 7.18962 9.49194 7.50413C9.11649 7.7889 8.88713 8.20597 8.88713 8.85777C8.88713 9.4269 9.0762 9.78306 9.39184 10.0482C9.74817 10.3475 10.352 10.5987 11.2796 10.7245L13.099 10.9727C14.2881 11.1118 15.3403 11.4523 16.1026 12.1408C16.9029 12.8636 17.25 13.8466 17.25 14.9677C17.25 16.1193 16.7353 17.1558 15.7962 17.8786C15.063 18.443 14.1086 18.7909 12.9957 18.9089C12.9986 18.9397 13 18.9709 13 19.0024V20.3381C13 20.8904 12.5523 21.3381 12 21.3381C11.4478 21.3381 11 20.8904 11 20.3381V19.0024C11 18.9715 11.0015 18.9409 11.0042 18.9107C9.54401 18.7608 8.30578 18.2228 7.13365 17.3053C6.69876 16.9649 6.62218 16.3363 6.9626 15.9015C7.30302 15.4666 7.93154 15.39 8.36643 15.7304C9.42981 16.5628 10.4921 16.9541 11.8744 16.9541H12.1152C13.2988 16.9541 14.098 16.6619 14.5763 16.2937C15.0356 15.9402 15.25 15.4835 15.25 14.9677C15.25 14.2793 15.0529 13.8878 14.762 13.625C14.4352 13.3298 13.853 13.0735 12.8584 12.9582L12.8484 12.957L11.0109 12.7064C9.89182 12.5546 8.86653 12.2189 8.10551 11.5796C7.30378 10.9062 6.88713 9.97232 6.88713 8.85777C6.88713 7.64675 7.35863 6.61199 8.28331 5.91063C8.98181 5.38084 9.87158 5.09168 10.8663 4.99318V3.66211C10.8663 3.10982 11.314 2.66211 11.8663 2.66211Z" fill="black"/>
</svg>
