<svg width="24" height="24" viewBox="0 0 24 24" fill="none" xmlns="http://www.w3.org/2000/svg">
<path fill-rule="evenodd" clip-rule="evenodd" d="M19.5912 7.2663C20.1757 7.73826 20.5626 8.41093 20.6506 9.15699C20.7979 10.4053 21 12.486 21 14.5001C21 15.8761 20.9057 17.2831 20.7989 18.4346C20.6619 19.9132 19.4015 21.0001 17.9165 21.0001H6.08346C4.59851 21.0001 3.33811 19.9132 3.20107 18.4346C3.09434 17.2831 3 15.8761 3 14.5001C3 12.4861 3.20214 10.4054 3.34937 9.15704C3.43736 8.41095 3.82432 7.73825 4.40884 7.2663L10.1156 2.65855C11.2152 1.7707 12.7853 1.77072 13.8849 2.6586L19.5912 7.2663ZM17.9165 19.0001H6.08346C5.57106 19.0001 5.22876 18.6408 5.19254 18.25C5.08905 17.1335 5 15.7927 5 14.5001C5 13.2314 5.08565 11.9216 5.18531 10.8289L10.1259 14.7815C11.2216 15.658 12.7785 15.658 13.8741 14.7815L18.8147 10.829C18.9143 11.9216 19 13.2314 19 14.5001C19 15.7927 18.9109 17.1335 18.8075 18.25C18.7712 18.6408 18.4289 19.0001 17.9165 19.0001ZM18.2286 8.73663L12.6247 13.2197C12.2595 13.5119 11.7406 13.5119 11.3753 13.2197L5.77147 8.73663L11.372 4.21463C11.7385 3.91868 12.2619 3.91869 12.6284 4.21465L18.2286 8.73663Z" fill="black"/>
</svg>
