<svg width="24" height="24" viewBox="0 0 24 24" fill="none" xmlns="http://www.w3.org/2000/svg">
<path fill-rule="evenodd" clip-rule="evenodd" d="M21.331 2.25671C21.7415 1.88725 22.3738 1.92053 22.7433 2.33104C23.1128 2.74155 23.0795 3.37384 22.669 3.74329L2.66896 21.7433C2.25846 22.1128 1.62617 22.0795 1.25671 21.669C0.887247 21.2585 0.920525 20.6262 1.33104 20.2567L2.97729 18.7751C2.73243 18.4275 2.56361 18.0204 2.49676 17.5728C2.25632 15.9633 2 13.8206 2 12C2 10.1794 2.25632 8.03665 2.49676 6.42715C2.70822 5.01159 3.93997 4 5.37124 4H18.6288C18.8615 4 19.0891 4.02676 19.3077 4.07766L21.331 2.25671ZM17.1718 6L5.37124 6C4.8804 6 4.53267 6.33533 4.47481 6.72264C4.44242 6.93941 4.41 7.1645 4.37816 7.39584L10.679 11.8435L17.1718 6ZM9.15458 13.2155L4.11777 9.66011C4.04606 10.4636 4 11.2662 4 12C4 13.6694 4.23841 15.6949 4.47481 17.2774C4.48109 17.3194 4.49079 17.3608 4.50371 17.4013L9.15458 13.2155Z" fill="black"/>
<path d="M21.5506 6.74984L19.7474 8.37272C19.891 9.57995 20 10.8714 20 12C20 13.6694 19.7616 15.6949 19.5252 17.2774C19.4673 17.6647 19.1196 18 18.6288 18L9.0504 18L6.82818 20H18.6288C20.06 20 21.2918 18.9884 21.5032 17.5728C21.7437 15.9633 22 13.8206 22 12C22 10.2986 21.7761 8.3158 21.5506 6.74984Z" fill="black"/>
</svg>
