<svg width="24" height="24" viewBox="0 0 24 24" fill="none" xmlns="http://www.w3.org/2000/svg">
<g clip-path="url(#clip0_1817_22940)">
<path fill-rule="evenodd" clip-rule="evenodd" d="M20.7071 4.70711C21.0976 4.31658 21.0976 3.68342 20.7071 3.29289C20.3166 2.90237 19.6834 2.90237 19.2929 3.29289L16.3771 6.20872C12.9624 4.18618 8.61626 4.70186 5.67667 7.75577L2.28247 11.282C1.90584 11.6733 1.90584 12.3267 2.28247 12.718L5.67666 16.2442C5.78616 16.358 5.8976 16.4682 6.01088 16.5749L3.29289 19.2929C2.90237 19.6834 2.90237 20.3166 3.29289 20.7071C3.68342 21.0976 4.31658 21.0976 4.70711 20.7071L20.7071 4.70711ZM7.42593 15.1599L8.92069 13.6651C8.65237 13.1699 8.5 12.6028 8.5 12C8.5 10.067 10.067 8.5 12 8.5C12.6028 8.5 13.1699 8.65237 13.6651 8.92069L14.9026 7.68322C12.3475 6.42111 9.26906 6.90762 7.1176 9.14276L4.36734 12L7.11759 14.8572C7.21839 14.9619 7.32121 15.0628 7.42593 15.1599ZM12.0835 10.5023C12.0559 10.5008 12.028 10.5 12 10.5C11.1716 10.5 10.5 11.1716 10.5 12C10.5 12.028 10.5008 12.0559 10.5023 12.0835L12.0835 10.5023Z" fill="black"/>
<path d="M17.9315 10.2327L19.346 8.81823L21.7175 11.282C22.0942 11.6733 22.0942 12.3267 21.7175 12.718L18.3233 16.2442C15.9095 18.7519 12.5473 19.5481 9.53125 18.633L11.2124 16.9518C13.2192 17.1981 15.3012 16.4999 16.8824 14.8572L19.6327 12L17.9315 10.2327Z" fill="black"/>
</g>
<defs>
<clipPath id="clip0_1817_22940">
<rect width="24" height="24" fill="white"/>
</clipPath>
</defs>
</svg>
