<svg width="24" height="24" viewBox="0 0 24 24" fill="none" xmlns="http://www.w3.org/2000/svg">
<g clip-path="url(#clip0_1817_22842)">
<path fill-rule="evenodd" clip-rule="evenodd" d="M12 8.5C10.067 8.5 8.5 10.067 8.5 12C8.5 13.933 10.067 15.5 12 15.5C13.933 15.5 15.5 13.933 15.5 12C15.5 10.067 13.933 8.5 12 8.5ZM10.5 12C10.5 11.1716 11.1716 10.5 12 10.5C12.8284 10.5 13.5 11.1716 13.5 12C13.5 12.8284 12.8284 13.5 12 13.5C11.1716 13.5 10.5 12.8284 10.5 12Z" fill="black"/>
<path fill-rule="evenodd" clip-rule="evenodd" d="M5.67667 7.75577C9.21347 4.08142 14.7865 4.08141 18.3233 7.75575L21.7175 11.282C22.0942 11.6733 22.0942 12.3267 21.7175 12.718L18.3233 16.2442C14.7865 19.9186 9.21347 19.9186 5.67666 16.2442L2.28247 12.718C1.90584 12.3267 1.90584 11.6733 2.28247 11.282L5.67667 7.75577ZM16.8824 9.14274L19.6327 12L16.8824 14.8572C14.1323 17.7143 9.86764 17.7143 7.11759 14.8572L4.36734 12L7.1176 9.14276C9.86765 6.28575 14.1323 6.28575 16.8824 9.14274Z" fill="black"/>
</g>
<defs>
<clipPath id="clip0_1817_22842">
<rect width="24" height="24" fill="white"/>
</clipPath>
</defs>
</svg>
