<svg width="24" height="24" viewBox="0 0 24 24" fill="none" xmlns="http://www.w3.org/2000/svg">
<path d="M5 4C4.44772 4 4 4.44772 4 5C4 5.55228 4.44772 6 5 6H7C7.55228 6 8 5.55228 8 5C8 4.44772 7.55228 4 7 4H5Z" fill="black"/>
<path fill-rule="evenodd" clip-rule="evenodd" d="M10 10C8.89543 10 8 10.8954 8 12V15C8 16.1046 8.89543 17 10 17H18C19.1046 17 20 16.1046 20 15V12C20 10.8954 19.1046 10 18 10H10ZM18 12H10V15H18V12Z" fill="black"/>
<path d="M9 18C8.44772 18 8 18.4477 8 19C8 19.5523 8.44772 20 9 20H19C19.5523 20 20 19.5523 20 19C20 18.4477 19.5523 18 19 18H9Z" fill="black"/>
<path fill-rule="evenodd" clip-rule="evenodd" d="M4 23H20C21.6569 23 23 21.6569 23 20V4C23 2.34315 21.6569 1 20 1H4C2.34315 1 1 2.34315 1 4V20C1 21.6569 2.34315 23 4 23ZM4 3H20C20.5523 3 21 3.44772 21 4V7H3V4C3 3.44772 3.44772 3 4 3ZM3 20V9H5V21H4C3.44772 21 3 20.5523 3 20ZM7 9V21H20C20.5523 21 21 20.5523 21 20V9H7Z" fill="black"/>
</svg>
