<svg width="24" height="24" viewBox="0 0 24 24" fill="none" xmlns="http://www.w3.org/2000/svg">
<g clip-path="url(#clip0_8152_234412)">
<path fill-rule="evenodd" clip-rule="evenodd" d="M12 22C17.5228 22 22 17.5228 22 12C22 6.47715 17.5228 2 12 2C6.47715 2 2 6.47715 2 12C2 17.5228 6.47715 22 12 22ZM9.584 19.6287V15.0559H7.522V11.9999H9.584V10.6831C9.584 7.2795 11.1244 5.7019 14.466 5.7019C15.0996 5.7019 16.1928 5.8259 16.64 5.9503V8.7203C16.404 8.6955 15.994 8.6831 15.4848 8.6831C13.8452 8.6831 13.2116 9.3043 13.2116 10.9191V11.9999H16.478L15.9168 15.0559H13.2112V19.9089C17.0547 19.3252 20 16.0065 20 12C20 7.58172 16.4183 4 12 4C7.58172 4 4 7.58172 4 12C4 15.5762 6.34658 18.6044 9.584 19.6287Z" fill="black"/>
</g>
<defs>
<clipPath id="clip0_8152_234412">
<rect width="24" height="24" fill="white"/>
</clipPath>
</defs>
</svg>
