<svg width="24" height="24" viewBox="0 0 24 24" fill="none" xmlns="http://www.w3.org/2000/svg">
<path fill-rule="evenodd" clip-rule="evenodd" d="M2.25487 5.33309C4.63383 2.6751 8.09417 1 11.9444 1C15.7947 1 19.255 2.6751 21.634 5.33309C22.0023 5.74461 21.9673 6.37681 21.5558 6.74513C21.1442 7.11346 20.5121 7.07844 20.1437 6.66691C18.1281 4.4149 15.2022 3 11.9444 3C8.6867 3 5.76075 4.4149 3.74514 6.66691C3.37682 7.07844 2.74462 7.11346 2.3331 6.74513C1.92157 6.37681 1.88655 5.74461 2.25487 5.33309ZM2.94444 14C2.94444 9.02944 6.97387 5 11.9444 5C16.915 5 20.9444 9.02944 20.9444 14C20.9444 14.5523 20.4967 15 19.9444 15C19.3922 15 18.9444 14.5523 18.9444 14C18.9444 10.134 15.8104 7 11.9444 7C8.07844 7 4.94444 10.134 4.94444 14C4.94444 15.6387 5.20685 17.2142 5.69119 18.6877C5.86364 19.2124 5.57811 19.7775 5.05344 19.95C4.52877 20.1224 3.96364 19.8369 3.79119 19.3123C3.24143 17.6396 2.94444 15.8535 2.94444 14ZM6.94444 14C6.94444 11.2386 9.18301 9 11.9444 9C14.7059 9 16.9444 11.2386 16.9444 14C16.9444 15.6568 18.2876 17 19.9444 17C20.4967 17 20.9444 17.4477 20.9444 18C20.9444 18.5523 20.4967 19 19.9444 19C17.183 19 14.9444 16.7614 14.9444 14C14.9444 12.3431 13.6013 11 11.9444 11C10.2876 11 8.94444 12.3431 8.94444 14C8.94444 16.8179 10.0027 19.3863 11.7451 21.3331C12.1135 21.7446 12.0784 22.3768 11.6669 22.7451C11.2554 23.1134 10.6232 23.0784 10.2549 22.6669C8.19696 20.3676 6.94444 17.3289 6.94444 14ZM11.9444 13C12.4967 13 12.9444 13.4477 12.9444 14C12.9444 16.5897 14.3502 18.8523 16.4452 20.0641C16.9232 20.3407 17.0866 20.9524 16.81 21.4305C16.5335 21.9085 15.9218 22.0719 15.4437 21.7953C12.7562 20.2407 10.9444 17.3325 10.9444 14C10.9444 13.4477 11.3922 13 11.9444 13Z" fill="black"/>
</svg>
