<svg width="24" height="24" viewBox="0 0 24 24" fill="none" xmlns="http://www.w3.org/2000/svg">
<g clip-path="url(#clip0_1140_4138)">
<path fill-rule="evenodd" clip-rule="evenodd" d="M10.5493 6.3776L9.46459 5.29289C9.27705 5.10536 9.0227 5 8.75748 5H5.00012C4.44784 5 4.00012 5.44772 4.00012 6V13.7997L5.48718 10.2308C5.79772 9.48548 6.52593 9 7.33333 9H19V8C19 7.44772 18.5523 7 18 7H12.0519C11.4883 7 10.9478 6.77611 10.5493 6.3776ZM21 8V9C22.4272 9 23.3951 10.4519 22.8462 11.7692L19.7692 19.1538C19.3034 20.2718 18.2111 21 17 21H5.00012C3.34327 21 2.00012 19.6569 2.00012 18V6C2.00012 4.34315 3.34327 3 5.00012 3H8.75748C9.55313 3 10.3162 3.31607 10.8788 3.87868L11.9635 4.96339C11.987 4.98683 12.0187 5 12.0519 5H18C19.6569 5 21 6.34315 21 8ZM7.33333 11H21L17.9231 18.3846C17.7678 18.7573 17.4037 19 17 19H5.5C4.78642 19 4.30247 18.2741 4.57692 17.6154L7.33333 11Z" fill="black"/>
</g>
<defs>
<clipPath id="clip0_1140_4138">
<rect width="24" height="24" fill="white"/>
</clipPath>
</defs>
</svg>
