<svg width="24" height="24" viewBox="0 0 24 24" fill="none" xmlns="http://www.w3.org/2000/svg">
<path fill-rule="evenodd" clip-rule="evenodd" d="M12.0102 7C11.485 7 10.9808 6.79339 10.6066 6.4248L9.45223 5.2876C9.26514 5.10331 9.01307 5 8.75046 5H5C4.44584 5 4.00009 5.44737 4.00008 5.99767V18.0023C4.00009 18.5526 4.44584 19 5 19H18.9997C19.553 19 19.9999 18.5523 19.9999 18.0008L19.9999 7.99788C19.9999 7.44745 19.5541 7 18.9999 7H12.0102ZM12.0102 5L10.8558 3.86281C10.2945 3.30992 9.5383 3 8.75046 3H5C3.34322 3 2.00012 4.34084 2.00008 5.99761L2.00008 18.0024C2.00012 19.6592 3.34322 21 5 21H18.9997C20.6567 21 21.9999 19.6578 21.9999 18.0008L21.9999 7.99791C22 6.34102 20.6568 5 18.9999 5H12.0102Z" fill="black"/>
</svg>
