<svg width="24" height="24" viewBox="0 0 24 24" fill="none" xmlns="http://www.w3.org/2000/svg">
<g clip-path="url(#clip0_1820_29874)">
<path fill-rule="evenodd" clip-rule="evenodd" d="M12 22C17.5228 22 22 17.5228 22 12C22 6.47715 17.5228 2 12 2C6.47715 2 2 6.47715 2 12C2 17.5228 6.47715 22 12 22ZM12.8676 19.5683C12.5184 19.9007 12.2269 20 12 20C11.7731 20 11.4816 19.9007 11.1324 19.5683C10.778 19.2311 10.4134 18.6958 10.0854 17.9578C9.68138 17.0488 9.36275 15.8992 9.17793 14.5932C10.0745 14.7051 11.0224 14.7645 11.9999 14.7645C12.9771 14.7645 13.925 14.7051 14.8221 14.5932C14.6373 15.8992 14.3186 17.0488 13.9146 17.9578C13.5866 18.6958 13.222 19.2311 12.8676 19.5683ZM14.9922 12.5517C14.068 12.6884 13.06 12.7645 11.9999 12.7645C10.9406 12.7645 9.93253 12.6885 9.00777 12.5517C9.00262 12.3696 9 12.1856 9 12C9 9.62114 9.43054 7.51558 10.0854 6.04218C10.4134 5.30422 10.778 4.76892 11.1324 4.43166C11.4816 4.0993 11.7731 4 12 4C12.2269 4 12.5184 4.0993 12.8676 4.43166C13.222 4.76892 13.5866 5.30422 13.9146 6.04218C14.5695 7.51558 15 9.62114 15 12C15 12.1856 14.9974 12.3695 14.9922 12.5517ZM16.883 14.2232C16.6985 15.9463 16.3021 17.5104 15.7422 18.7701C15.682 18.9057 15.6194 19.0388 15.5544 19.169C17.8823 18.0126 19.5669 15.7558 19.9278 13.0791C19.4297 13.365 18.8633 13.614 18.2511 13.8262C17.823 13.9746 17.3654 14.1074 16.883 14.2232ZM19.8743 10.5798C19.7631 10.7299 19.5884 10.905 19.3238 11.0945C18.9076 11.3924 18.328 11.6828 17.5961 11.9365C17.4055 12.0026 17.2064 12.0655 16.9996 12.125C16.9999 12.0834 17 12.0417 17 12C17 9.40829 16.5351 7.01386 15.7422 5.2299C15.682 5.09431 15.6194 4.96122 15.5544 4.83099C17.7827 5.93791 19.4216 8.05315 19.8743 10.5798ZM7.00036 12.125C7.00012 12.0834 7 12.0417 7 12C7 9.40829 7.46489 7.01386 8.25776 5.2299C8.31802 5.09431 8.38064 4.96122 8.44561 4.83099C6.21724 5.93795 4.57825 8.05329 4.12564 10.58C4.46852 11.043 5.3069 11.5966 6.71276 12.0385C6.80686 12.0681 6.90275 12.0969 7.00036 12.125ZM4.07217 13.0792C4.43309 15.7558 6.11776 18.0126 8.44561 19.169C8.38064 19.0388 8.31802 18.9057 8.25776 18.7701C7.69789 17.5104 7.30155 15.9463 7.11696 14.2232C6.76872 14.1397 6.4335 14.0472 6.11306 13.9465C5.37788 13.7154 4.67973 13.4279 4.07217 13.0792Z" fill="black"/>
</g>
<defs>
<clipPath id="clip0_1820_29874">
<rect width="24" height="24" fill="white"/>
</clipPath>
</defs>
</svg>
