<svg width="24" height="24" viewBox="0 0 24 24" fill="none" xmlns="http://www.w3.org/2000/svg">
<path fill-rule="evenodd" clip-rule="evenodd" d="M21.2929 1.29289C21.6834 0.902369 22.3166 0.902369 22.7071 1.29289C23.0976 1.68342 23.0976 2.31658 22.7071 2.70711L2.70711 22.7071C2.31658 23.0976 1.68342 23.0976 1.29289 22.7071C0.902369 22.3166 0.902369 21.6834 1.29289 21.2929L3.54673 19.0391C1.95662 17.1316 1 14.6775 1 12C1 5.92487 5.92487 1 12 1C14.6775 1 17.1316 1.95662 19.0391 3.54673L21.2929 1.29289ZM17.6177 4.9681C16.9334 4.42068 16.1674 3.97108 15.3409 3.64049C15.4904 3.93083 15.629 4.23779 15.7569 4.55754C15.967 5.0827 16.1539 5.65673 16.3149 6.27085L17.6177 4.9681ZM14.6409 7.94486C14.4534 6.945 14.2003 6.0511 13.9 5.30032C13.5659 4.46523 13.1932 3.85653 12.8304 3.47296C12.4697 3.0915 12.1887 3 12 3C11.8113 3 11.5303 3.0915 11.1696 3.47296C10.8068 3.85653 10.4341 4.46523 10.1 5.30032C9.43419 6.96497 9 9.33323 9 12C9 12.2734 9.00456 12.5437 9.01348 12.8104C9.23742 12.8398 9.46538 12.8659 9.69702 12.8888L14.6409 7.94486ZM7.22222 15.3636C7.18432 15.0856 7.15105 14.803 7.12257 14.5162C6.56115 14.3974 6.02727 14.2583 5.52657 14.1009C4.61906 13.8157 3.76929 13.4541 3.05611 13.0106C3.24962 14.7423 3.93449 16.3256 4.9681 17.6177L7.22222 15.3636ZM7.00362 12.4377C7.00121 12.2924 7 12.1465 7 12C7 9.14392 7.46124 6.51218 8.2431 4.55754C8.371 4.23779 8.50959 3.93083 8.65909 3.64049C5.81189 4.77941 3.68233 7.33078 3.13678 10.4282C3.14291 10.4383 3.1493 10.4485 3.15595 10.4589C3.5153 11.0173 4.48561 11.6773 6.12627 12.193C6.4052 12.2806 6.6981 12.3624 7.00362 12.4377Z" fill="black"/>
<path fill-rule="evenodd" clip-rule="evenodd" d="M12.8304 20.527C12.4697 20.9085 12.1887 21 12 21C11.8113 21 11.5303 20.9085 11.1696 20.527C10.8068 20.1435 10.4341 19.5348 10.1 18.6997C9.97263 18.3811 9.85369 18.0368 9.74466 17.6696L8.16694 19.2473C8.19198 19.3131 8.21736 19.3781 8.2431 19.4425C8.371 19.7622 8.50959 20.0692 8.65909 20.3595C8.28474 20.2098 7.92279 20.0356 7.57522 19.839L6.11756 21.2967C7.81883 22.3754 9.83647 23 12 23C18.0751 23 23 18.0751 23 12C23 9.83647 22.3754 7.81883 21.2967 6.11756L19.839 7.57522C20.3317 8.4462 20.6834 9.40745 20.8632 10.428C20.7399 10.6311 20.5189 10.8736 20.1537 11.135C19.6834 11.4717 19.0332 11.7967 18.218 12.0793C17.839 12.2107 17.4305 12.3307 16.9964 12.4376C16.9988 12.2924 17 12.1465 17 12C17 11.4781 16.9846 10.9637 16.9547 10.4596L14.9964 12.4178C14.9942 12.5495 14.9909 12.6804 14.9865 12.8104C14.8431 12.8292 14.698 12.8467 14.5514 12.8628L12.4175 14.9967C13.2466 14.9836 14.054 14.9316 14.8286 14.8443C14.643 16.339 14.3169 17.6573 13.9 18.6997C13.5659 19.5348 13.1932 20.1435 12.8304 20.527ZM16.8774 14.5162C16.6918 16.3854 16.3024 18.0787 15.7569 19.4425C15.629 19.7622 15.4904 20.0692 15.3409 20.3595C18.3583 19.1525 20.5697 16.3591 20.9439 13.0106C20.3465 13.382 19.6442 13.7017 18.8729 13.969C18.2597 14.1816 17.5907 14.3652 16.8774 14.5162Z" fill="black"/>
</svg>
