<svg width="24" height="24" viewBox="0 0 24 24" fill="none" xmlns="http://www.w3.org/2000/svg">
<g clip-path="url(#clip0_1032_2414)">
<path fill-rule="evenodd" clip-rule="evenodd" d="M11.7902 7C8.86508 7 7 9.27527 7 12C7 14.7247 8.86508 17 11.7902 17H11.9598C12.4902 17 12.9858 16.9251 13.4417 16.7864C13.9162 17.2444 14.2637 17.6595 14.6273 18.1865C14.9017 18.5842 15.4467 18.6842 15.8444 18.4098C16.2422 18.1353 16.3421 17.5904 16.0677 17.1926C15.7407 16.7186 15.4191 16.3158 15.0422 15.9162C16.1292 14.9939 16.75 13.5714 16.75 12C16.75 9.37487 14.8963 7 11.9598 7H11.7902ZM8.75 12C8.75 10.0997 9.96777 8.75 11.7902 8.75H11.9598C13.7708 8.75 15 10.1743 15 12C15 13.8995 13.7821 15.25 11.9598 15.25H11.7902C9.96777 15.25 8.75 13.9003 8.75 12Z" fill="black"/>
</g>
<defs>
<clipPath id="clip0_1032_2414">
<rect width="24" height="24" fill="white"/>
</clipPath>
</defs>
</svg>
