<svg width="24" height="24" viewBox="0 0 24 24" fill="none" xmlns="http://www.w3.org/2000/svg">
<path d="M6.00052 4C4.89595 4 4.00052 4.89543 4.00052 6V13.7783L2.52905 17.2123C1.96355 18.532 2.93161 20.0001 4.36739 20.0001H19.6343C21.0702 20.0001 22.0382 18.532 21.4726 17.2122L20.0007 13.7778L20.0005 6C20.0005 4.89543 19.1051 4 18.0005 4H6.00052ZM18.0005 6V13.5556H6.00052V6H18.0005ZM8.35828 18.0001H4.36739L5.31961 15.7778H18.6819L19.6343 18.0001H15.6421C15.5411 17.5547 15.1428 17.2222 14.6669 17.2222H9.33353C8.85758 17.2222 8.45929 17.5547 8.35828 18.0001Z" fill="black"/>
</svg>
