<svg width="24" height="24" viewBox="0 0 24 24" fill="none" xmlns="http://www.w3.org/2000/svg">
<g clip-path="url(#clip0_7046_224610)">
<path fill-rule="evenodd" clip-rule="evenodd" d="M20.7071 4.70711C21.0976 4.31658 21.0976 3.68342 20.7071 3.29289C20.3166 2.90237 19.6834 2.90237 19.2929 3.29289L17.3116 5.27414C17.1804 4.67486 17.0466 4.16718 16.9265 3.75651C16.7397 3.11783 15.9862 2.92034 15.4712 3.34172L11 7H7.8541C6.71779 7 5.67668 7.64872 5.3991 8.75061C5.1869 9.59297 5 10.703 5 12C5 13.297 5.1869 14.407 5.3991 15.2494C5.52184 15.7366 5.79387 16.1353 6.15741 16.4284L3.29289 19.2929C2.90237 19.6834 2.90237 20.3166 3.29289 20.7071C3.68342 21.0976 4.31658 21.0976 4.70711 20.7071L20.7071 4.70711ZM7.61665 14.9691L15.6033 6.98251C15.5434 6.62058 15.4799 6.28332 15.4154 5.97155L11.7139 9H7.8541C7.65877 9 7.51534 9.05685 7.43628 9.11111C7.36967 9.15683 7.34942 9.19587 7.33851 9.23917C7.15956 9.94955 7 10.8941 7 12C7 13.1059 7.15956 14.0504 7.33851 14.7608C7.34942 14.8041 7.36967 14.8432 7.43628 14.8889C7.4786 14.9179 7.53936 14.9477 7.61665 14.9691Z" fill="black"/>
<path d="M11.0902 17.0738L12.5115 15.6525L15.4154 18.0284C15.7132 16.5899 15.9877 14.6086 15.9996 12.1644L17.9547 10.2094C17.9838 10.7784 18 11.3757 18 12C18 15.8887 17.3699 18.7273 16.9265 20.2435C16.7397 20.8822 15.9862 21.0797 15.4712 20.6583L11.0902 17.0738Z" fill="black"/>
</g>
<defs>
<clipPath id="clip0_7046_224610">
<rect width="24" height="24" fill="white"/>
</clipPath>
</defs>
</svg>
