<svg width="24" height="24" viewBox="0 0 24 24" fill="none" xmlns="http://www.w3.org/2000/svg">
<g clip-path="url(#clip0_7046_224779)">
<path d="M19.4762 6.18437C19.9757 5.94855 20.5717 6.16224 20.8075 6.66165C21.5726 8.28207 22 10.0925 22 11.9999C22 13.9074 21.5726 15.7178 20.8075 17.3382C20.5717 17.8376 19.9757 18.0513 19.4762 17.8155C18.9768 17.5797 18.7632 16.9836 18.999 16.4842C19.6407 15.1252 20 13.6059 20 11.9999C20 10.3939 19.6407 8.87461 18.999 7.51561C18.7632 7.0162 18.9768 6.42018 19.4762 6.18437Z" fill="black"/>
<path d="M16.5679 9.03565C17.1005 8.88951 17.6507 9.20281 17.7969 9.73541C17.9855 10.423 18.0859 11.1459 18.0859 11.8908C18.0859 12.6582 17.9793 13.4024 17.7795 14.1086C17.6291 14.64 17.0763 14.9489 16.5449 14.7985C16.0135 14.6481 15.7046 14.0953 15.855 13.5639C16.0052 13.0332 16.0859 12.4723 16.0859 11.8908C16.0859 11.3264 16.0099 10.7814 15.8681 10.2646C15.722 9.732 16.0353 9.18178 16.5679 9.03565Z" fill="black"/>
<path d="M8.23526 9.52624L11.52 6.92124C11.776 8.19768 12 9.91123 12 11.9999C12 14.0886 11.776 15.8022 11.52 17.0786L8.23526 14.4736H4.75118C4.5574 14.4736 4.41838 14.4175 4.34615 14.3682C4.28787 14.3285 4.27795 14.3013 4.27136 14.2743C4.12433 13.6721 4 12.8968 4 11.9999C4 11.103 4.12433 10.3277 4.27136 9.72557C4.27795 9.69856 4.28787 9.67138 4.34615 9.6316C4.41838 9.58229 4.5574 9.52624 4.75118 9.52624H8.23526ZM7.53846 16.4736L11.6023 19.6965C12.115 20.1031 12.8522 19.9077 13.0376 19.2801C13.4448 17.9017 14 15.3992 14 11.9999C14 8.60061 13.4448 6.09816 13.0376 4.71972C12.8522 4.09216 12.115 3.89675 11.6023 4.30337L7.53846 7.52624H4.75118C3.62846 7.52624 2.59473 8.1605 2.32843 9.25119C2.14965 9.98344 2 10.9192 2 11.9999C2 13.0807 2.14965 14.0164 2.32843 14.7487C2.59473 15.8393 3.62846 16.4736 4.75118 16.4736H7.53846Z" fill="black"/>
</g>
<defs>
<clipPath id="clip0_7046_224779">
<rect width="24" height="24" fill="white"/>
</clipPath>
</defs>
</svg>
