<svg width="24" height="24" viewBox="0 0 24 24" fill="none" xmlns="http://www.w3.org/2000/svg">
<g clip-path="url(#clip0_1820_28600)">
<path d="M9.2929 8.29289C9.68342 7.90237 10.3166 7.90237 10.7071 8.29289L13 10.5858L15.2929 8.29289C15.6834 7.90237 16.3166 7.90237 16.7071 8.29289C17.0976 8.68342 17.0976 9.31658 16.7071 9.70711L14.4142 12L16.7071 14.2929C17.0976 14.6834 17.0976 15.3166 16.7071 15.7071C16.3166 16.0976 15.6834 16.0976 15.2929 15.7071L13 13.4142L10.7071 15.7071C10.3166 16.0976 9.68342 16.0976 9.2929 15.7071C8.90237 15.3166 8.90237 14.6834 9.2929 14.2929L11.5858 12L9.2929 9.70711C8.90237 9.31658 8.90237 8.68342 9.2929 8.29289Z" fill="black"/>
<path fill-rule="evenodd" clip-rule="evenodd" d="M22 7C22 5.34315 20.6569 4 19 4H8.75C7.80572 4 6.91656 4.44458 6.34999 5.2L2.6 10.2C1.8 11.2667 1.8 12.7333 2.6 13.8L6.34999 18.8C6.91656 19.5554 7.80572 20 8.75 20H19C20.6569 20 22 18.6569 22 17V7ZM19 18C19.5523 18 20 17.5523 20 17V7C20 6.44772 19.5523 6 19 6L8.75 6C8.43524 6 8.13885 6.14819 7.95 6.4L4.2 11.4C3.93333 11.7556 3.93333 12.2444 4.2 12.6L7.94999 17.6C8.13885 17.8518 8.43524 18 8.75 18H19Z" fill="black"/>
</g>
<defs>
<clipPath id="clip0_1820_28600">
<rect width="24" height="24" fill="white"/>
</clipPath>
</defs>
</svg>
