<svg width="24" height="24" viewBox="0 0 24 24" fill="none" xmlns="http://www.w3.org/2000/svg">
<path fill-rule="evenodd" clip-rule="evenodd" d="M17 17V12L19.7394 12C20.6076 12 21.0634 10.9697 20.4794 10.3273L12.7399 1.81393C12.3432 1.3775 11.6568 1.3775 11.2601 1.81393L3.52061 10.3273C2.93664 10.9697 3.39241 12 4.26055 12L7 12L7 17C7 18.1046 7.89543 19 9 19L15 19C16.1046 19 17 18.1046 17 17ZM7 10C8.10457 10 9 10.8954 9 12L9 17H15V12C15 11.4696 15.2107 10.9609 15.5858 10.5858C15.9609 10.2107 16.4696 10 17 10H17.4789L12 3.97321L6.5211 10H7Z" fill="black"/>
<path d="M8 21C7.44772 21 7 21.4477 7 22C7 22.5523 7.44772 23 8 23H16C16.5523 23 17 22.5523 17 22C17 21.4477 16.5523 21 16 21H8Z" fill="black"/>
</svg>
