<svg width="24" height="24" viewBox="0 0 24 24" fill="none" xmlns="http://www.w3.org/2000/svg">
<g clip-path="url(#clip0_7372_61232)">
<path d="M6.49299 10.3719C6.49299 10.151 6.31391 9.97192 6.09299 9.97192C5.87208 9.97192 5.69299 10.151 5.69299 10.3719V13.4159C5.69299 13.7797 5.98965 14.0219 6.31276 14.0219H8.25966C8.48057 14.0219 8.65966 13.8428 8.65966 13.6219C8.65966 13.401 8.48057 13.2219 8.25966 13.2219H6.49299V10.3719Z" fill="black"/>
<path d="M10.1402 10.3727C10.1402 10.1517 9.96112 9.97266 9.74021 9.97266C9.5193 9.97266 9.34021 10.1517 9.34021 10.3727V13.6227C9.34021 13.8436 9.5193 14.0227 9.74021 14.0227C9.96112 14.0227 10.1402 13.8436 10.1402 13.6227V10.3727Z" fill="black"/>
<path d="M17.9069 10.7727H16.1402V11.5977H17.6759C17.8968 11.5977 18.0759 11.7767 18.0759 11.9977C18.0759 12.2186 17.8968 12.3977 17.6759 12.3977H16.1402V13.2227H17.9069C18.1278 13.2227 18.3069 13.4017 18.3069 13.6227C18.3069 13.8436 18.1278 14.0227 17.9069 14.0227H15.9697C15.6578 14.0227 15.3402 13.7959 15.3402 13.4166V10.5787C15.3402 10.1994 15.6578 9.97266 15.9697 9.97266H17.9069C18.1278 9.97266 18.3069 10.1517 18.3069 10.3727C18.3069 10.5936 18.1278 10.7727 17.9069 10.7727Z" fill="black"/>
<path d="M12.8439 13.2282H12.6404C12.4273 12.7516 12.1877 12.0425 11.9947 11.4259C11.8943 11.1052 11.8082 10.8153 11.7473 10.6056C11.7168 10.5009 11.6927 10.4162 11.6762 10.3579L11.6574 10.2911L11.6526 10.2739L11.6511 10.2684C11.5922 10.0555 11.3718 9.93063 11.1589 9.98953C10.946 10.0484 10.8213 10.2693 10.8802 10.4822L10.8818 10.4882L10.8869 10.5065L10.9064 10.5757C10.9234 10.6356 10.948 10.7221 10.9791 10.8289C11.0411 11.0424 11.1288 11.3377 11.2312 11.6649C11.4333 12.3105 11.7003 13.104 11.9454 13.6323C12.0539 13.8794 12.2907 14.0282 12.5503 14.0282H12.934C13.1936 14.0282 13.4304 13.8794 13.539 13.6323C13.784 13.104 14.051 12.3105 14.2531 11.6649C14.3556 11.3377 14.4432 11.0424 14.5053 10.8289C14.5363 10.7221 14.561 10.6356 14.5779 10.5757L14.5974 10.5065L14.6025 10.4882L14.6042 10.4822C14.6631 10.2693 14.5383 10.0484 14.3254 9.98953C14.1125 9.93063 13.8922 10.0555 13.8333 10.2684L13.8317 10.2739L13.8269 10.2911L13.8081 10.3579C13.7916 10.4162 13.7675 10.5009 13.737 10.6056C13.6761 10.8153 13.5901 11.1052 13.4897 11.4259C13.2966 12.0425 13.057 12.7516 12.8439 13.2282Z" fill="black"/>
<path fill-rule="evenodd" clip-rule="evenodd" d="M19.7512 4.47463C21.0901 4.66257 22 5.82651 22 7.17856V16.8214C22 18.1735 21.0901 19.3374 19.7512 19.5254C18.0997 19.7572 15.5279 20 12 20C8.4721 20 5.90028 19.7572 4.24885 19.5254C2.90993 19.3374 2 18.1735 2 16.8214V7.17856C2 5.82651 2.90993 4.66257 4.24885 4.47462C5.90029 4.24281 8.47211 4 12 4C15.5279 4 18.0997 4.24281 19.7512 4.47463ZM20 7.17856V16.8214C20 17.0489 19.924 17.228 19.8286 17.3449C19.7388 17.4548 19.6233 17.5237 19.4731 17.5448C17.9147 17.7636 15.4358 18 12 18C8.5642 18 6.08529 17.7636 4.52686 17.5448C4.37672 17.5237 4.26119 17.4548 4.17139 17.3449C4.07598 17.228 4 17.0489 4 16.8214L4 7.17856C4 6.95112 4.07598 6.77196 4.17139 6.65512C4.26119 6.54517 4.37672 6.47628 4.52686 6.45521C6.08529 6.23645 8.5642 6 12 6C15.4358 6 17.9147 6.23645 19.4731 6.45521C19.6233 6.47628 19.7388 6.54517 19.8286 6.65512C19.924 6.77196 20 6.95112 20 7.17856Z" fill="black"/>
</g>
<defs>
<clipPath id="clip0_7372_61232">
<rect width="24" height="24" fill="white"/>
</clipPath>
</defs>
</svg>
