<svg width="24" height="24" viewBox="0 0 24 24" fill="none" xmlns="http://www.w3.org/2000/svg">
<path d="M7.92102 11.4124C7.31816 12.3774 6.64821 13.4498 6.25032 14.0751C6.04822 14.3928 5.82508 14.825 6.12508 15.0284C6.50008 15.2826 6.68746 15.1555 7.18746 14.7741C7.68746 14.3928 8.31246 13.8844 9.18746 13.1217C10.1365 12.2945 10.409 12.3807 11.25 13.1217C11.4115 13.2641 11.5655 13.4064 11.715 13.5445C12.4331 14.2081 13.0456 14.7741 13.875 14.7741C14.74 14.7741 15.2294 13.9216 16.2317 12.1755L16.2323 12.1744C16.3909 11.8983 16.5623 11.5997 16.75 11.2787C16.9332 10.9652 17.0979 10.69 17.243 10.4474C17.9396 9.283 18.1852 8.87239 17.875 8.60941C17.5672 8.34852 17.2592 8.60169 16.8822 8.91171C16.8 8.9793 16.7145 9.04959 16.625 9.11784C16.125 9.49916 15.3751 10.0711 14.6251 10.7067C13.8751 11.3422 13.6875 11.4058 13.0001 10.8338C12.7461 10.6224 12.6005 10.5085 12.3704 10.3284C12.1872 10.1851 11.9503 9.99969 11.5625 9.68983C10.5624 8.89079 9.5625 8.80007 9 9.68983C8.76308 10.0646 8.35974 10.7102 7.92102 11.4124Z" fill="black"/>
<path fill-rule="evenodd" clip-rule="evenodd" d="M12 2C6.51002 2 2 6.30794 2 11.6942C2 14.5122 3.24049 17.0427 5.20625 18.8079V20.3884C5.20625 20.851 5.40347 21.4046 5.92095 21.7413C6.45497 22.0889 7.08613 22.0508 7.63924 21.8345C8.06684 21.6672 8.76436 21.3275 9.33409 21.0399C10.184 21.2672 11.0782 21.3884 12 21.3884C17.49 21.3884 22 17.0805 22 11.6942C22 6.30794 17.49 2 12 2ZM4 11.6942C4 7.47711 7.54886 4 12 4C16.4511 4 20 7.47711 20 11.6942C20 15.9113 16.4511 19.3884 12 19.3884C11.1362 19.3884 10.3065 19.257 9.53005 19.0149L9.1395 18.8931L8.77557 19.08C8.27906 19.3349 7.64909 19.6486 7.20625 19.8465V17.872L6.8373 17.5718C5.09443 16.154 4 14.0433 4 11.6942Z" fill="black"/>
</svg>
