<svg width="24" height="24" viewBox="0 0 24 24" fill="none" xmlns="http://www.w3.org/2000/svg">
<g clip-path="url(#clip0_156_27430)">
<path d="M16.3531 4.99999C14.7131 4.99999 13.432 6.30059 12.2704 7.95399C10.6757 5.81479 9.34268 4.99999 7.74656 4.99999C4.49319 4.99999 2 9.46039 2 14.1826C2 17.1366 3.3569 19 5.62948 19C7.26547 19 8.44162 18.188 10.5335 14.3366C10.5335 14.3366 11.4053 12.7154 12.0047 11.5982C12.2146 11.9552 12.4352 12.3402 12.6691 12.7532L13.6499 14.4906C15.5597 17.8576 16.6242 19 18.5539 19C20.768 19 22 17.1114 22 14.0958C21.9987 9.15239 19.4497 4.99999 16.3531 4.99999ZM8.93867 13.2936C7.24287 16.0936 6.65679 16.7208 5.71187 16.7208C4.74038 16.7208 4.16227 15.822 4.16227 14.2204C4.16227 10.7932 5.78497 7.28759 7.71865 7.28759C8.7659 7.28759 9.6417 7.92459 10.9813 9.94619C9.70948 12.0042 8.93867 13.2936 8.93867 13.2936ZM15.3378 12.9408L14.1656 10.8814C13.848 10.3382 13.5436 9.83839 13.2512 9.38059C14.3065 7.66139 15.1783 6.80599 16.2162 6.80599C18.3705 6.80599 20.0929 10.1464 20.0929 14.2498C20.0929 15.8136 19.6065 16.7222 18.5991 16.7222C17.6329 16.7208 17.1718 16.0488 15.3378 12.9408Z" fill="black"/>
</g>
<defs>
<clipPath id="clip0_156_27430">
<rect width="24" height="24" fill="white"/>
</clipPath>
</defs>
</svg>
