<svg width="24" height="24" viewBox="0 0 24 24" fill="none" xmlns="http://www.w3.org/2000/svg">
<path fill-rule="evenodd" clip-rule="evenodd" d="M16.6073 14.2443C16.2611 14.301 15.9171 14.3021 15.5704 14.3021H8.42911C8.08227 14.3021 7.73799 14.301 7.39145 14.2442C7.04491 14.1875 6.72271 14.0597 6.43181 13.8576C5.84925 13.4528 5.49938 12.7865 5.49984 12.0718C5.50014 11.3574 5.85046 10.6933 6.43317 10.2889C6.72392 10.0872 7.04597 9.95065 7.39221 9.89397C7.73845 9.83745 8.08257 9.83333 8.42911 9.83333H15.5704C15.9173 9.83333 16.2617 9.83669 16.6081 9.89336C16.9546 9.95019 17.2768 10.0791 17.5677 10.2811C18.1503 10.6859 18.5001 11.3528 18.4998 12.0674C18.4994 12.7818 18.1492 13.4524 17.5665 13.8567C17.2756 14.0585 16.9537 14.1877 16.6073 14.2443ZM20.4055 17.1503C21.9399 15.9132 22.8333 14.0455 22.8332 12.069C22.833 10.0923 21.9393 8.22487 20.4045 6.98797C19.6416 6.373 18.7686 5.94826 17.8184 5.71874C17.2742 5.58744 16.7299 5.52881 16.1726 5.51038C15.7599 5.49693 15.3475 5.5004 14.9348 5.5004H9.06491C8.65219 5.5004 8.23947 5.49693 7.8266 5.51053C7.26898 5.52881 6.72446 5.58744 6.17993 5.71889C5.22991 5.94856 4.35722 6.3736 3.59422 6.98873C2.0598 8.22577 1.16635 10.0934 1.1665 12.07C1.16665 14.0467 2.06055 15.9141 3.59513 17.1509C4.35827 17.766 5.23126 18.1907 6.18128 18.4203C6.72551 18.5516 7.26973 18.6081 7.82705 18.6264C8.23977 18.64 8.65234 18.6342 9.06491 18.6342H14.9348C15.3476 18.6342 15.7602 18.64 16.1731 18.6264C16.7308 18.6081 17.2754 18.5505 17.8197 18.4189C18.7698 18.1894 19.6426 17.7654 20.4055 17.1503Z" fill="black"/>
</svg>
