<svg width="24" height="24" viewBox="0 0 24 24" fill="none" xmlns="http://www.w3.org/2000/svg">
<path fill-rule="evenodd" clip-rule="evenodd" d="M12.1434 6C10.3477 6 9 7.53261 9 9.28571V10H8.99707C8.13621 10 7.37512 10.5545 7.22626 11.4024C7.10651 12.0845 7 12.9783 7 14C7 15.0217 7.10651 15.9155 7.22626 16.5976C7.37512 17.4455 8.13621 18 8.99707 18H15.0029C15.8638 18 16.6249 17.4455 16.7737 16.5976C16.8935 15.9155 17 15.0217 17 14C17 12.9783 16.8935 12.0845 16.7737 11.4024C16.6249 10.5545 15.8638 10 15.0029 10H11V9.28571C11 8.51409 11.5715 8 12.1434 8C12.4144 8 12.67 8.10596 12.8757 8.29961C12.9708 8.38909 13.0544 8.49689 13.121 8.61967C13.3843 9.10513 13.9914 9.2852 14.4768 9.02186C14.9623 8.75853 15.1423 8.15151 14.879 7.66605C14.7123 7.35865 14.4987 7.08058 14.2465 6.84325C13.6966 6.32562 12.9595 6 12.1434 6ZM9.15455 12C9.06898 12.5524 9 13.2357 9 14C9 14.7643 9.06898 15.4476 9.15455 16H14.8455C14.931 15.4476 15 14.7643 15 14C15 13.2357 14.931 12.5524 14.8455 12H9.15455Z" fill="black"/>
</svg>
