<svg width="24" height="24" viewBox="0 0 24 24" fill="none" xmlns="http://www.w3.org/2000/svg">
<path fill-rule="evenodd" clip-rule="evenodd" d="M18.4537 6.9606L11.8794 13.5348C11.9373 13.656 11.9873 13.7818 12.0289 13.9115L13.9549 19.9159C14.8214 18.0631 15.8647 15.6636 16.7069 13.102C17.2761 11.3706 17.9362 8.94863 18.4537 6.9606ZM10.4652 12.1206L17.0395 5.54639C15.0514 6.06385 12.6294 6.72401 10.8981 7.29318C8.33646 8.13533 5.93698 9.17863 4.0842 10.0452L10.0886 11.9711C10.2183 12.0127 10.344 12.0628 10.4652 12.1206ZM18.7179 3.05402C20.0669 2.71648 21.2836 3.93316 20.946 5.28216C20.4397 7.30586 19.4373 11.2006 18.6069 13.7266C17.7244 16.411 16.6366 18.9051 15.7495 20.7995C14.971 22.4621 12.6028 22.2487 12.0587 20.5525L10.1245 14.5223C10.0259 14.215 9.78507 13.9741 9.47773 13.8756L3.44754 11.9413C1.75134 11.3973 1.53794 9.02905 3.20057 8.25053C5.09493 7.36351 7.58911 6.27572 10.2735 5.39322C12.7994 4.5628 16.6942 3.56039 18.7179 3.05402Z" fill="black"/>
</svg>
