<svg width="24" height="24" viewBox="0 0 24 24" fill="none" xmlns="http://www.w3.org/2000/svg">
<g clip-path="url(#clip0_1820_31086)">
<path fill-rule="evenodd" clip-rule="evenodd" d="M17.3707 4.82719C16.2361 3.69261 14.3966 3.69261 13.262 4.82719L6.35836 11.7309C4.46128 13.628 4.46128 16.7037 6.35836 18.6008C8.25544 20.4979 11.3312 20.4979 13.2283 18.6008L17.3705 14.4586C17.7611 14.068 18.3942 14.068 18.7848 14.4586C19.1753 14.8491 19.1753 15.4823 18.7848 15.8728L14.6425 20.015C11.9644 22.6931 7.62228 22.6932 4.94414 20.015C2.26601 17.3369 2.26601 12.9948 4.94415 10.3167L11.8478 3.41298C13.7635 1.49735 16.8693 1.49735 18.7849 3.41297C20.7005 5.3286 20.7006 8.43444 18.7849 10.3501L12.5715 16.5635C11.4184 17.7166 9.54893 17.7166 8.39586 16.5635C7.24278 15.4104 7.24278 13.5409 8.39586 12.3878L13.9187 6.86494C14.3093 6.47442 14.9424 6.47442 15.333 6.86494C15.7235 7.25547 15.7235 7.88863 15.333 8.27916L9.81007 13.802C9.43805 14.1741 9.43805 14.7772 9.81007 15.1493C10.1821 15.5213 10.7853 15.5213 11.1573 15.1493L17.3707 8.93586C18.5053 7.80128 18.5053 5.96177 17.3707 4.82719Z" fill="black"/>
</g>
<defs>
<clipPath id="clip0_1820_31086">
<rect width="24" height="24" fill="white"/>
</clipPath>
</defs>
</svg>
