<svg width="24" height="24" viewBox="0 0 24 24" fill="none" xmlns="http://www.w3.org/2000/svg">
<path fill-rule="evenodd" clip-rule="evenodd" d="M20.2929 21.7071C20.6834 22.0976 21.3166 22.0976 21.7071 21.7071C22.0976 21.3166 22.0976 20.6834 21.7071 20.2929L14.7073 13.293L20 8.00031C21.1046 6.89574 21.1046 5.10487 20 4.0003C18.8954 2.89573 17.1046 2.89573 16 4.0003L10.7073 9.29304L3.70711 2.29289C3.31658 1.90237 2.68342 1.90237 2.29289 2.29289C1.90237 2.68342 1.90237 3.31658 2.29289 3.70711L20.2929 21.7071ZM12.1215 10.7073L13.293 11.8788L15.3787 9.7932L14.2071 8.62162L12.1215 10.7073ZM15.6213 7.20741L17.4142 5.41452C17.7377 5.091 18.2623 5.091 18.5858 5.41452C18.9093 5.73804 18.9093 6.26257 18.5858 6.58609L16.7929 8.37898L15.6213 7.20741Z" fill="black"/>
<path d="M10.6288 14.543L12.043 15.9573L9.3547 18.6456C7.84701 20.1533 5.80215 21.0003 3.66995 21.0003C3.29995 21.0003 3 20.7004 3 20.3303C3 18.1982 3.84701 16.1533 5.3547 14.6456L8.04304 11.9573L9.45726 13.3715L6.76891 16.0598C6.00357 16.8252 5.46486 17.7748 5.19595 18.8044C6.22554 18.5354 7.17515 17.9967 7.94049 17.2314L10.6288 14.543Z" fill="black"/>
</svg>
