<svg width="24" height="24" viewBox="0 0 24 24" fill="none" xmlns="http://www.w3.org/2000/svg">
<g clip-path="url(#clip0_159_56339)">
<path fill-rule="evenodd" clip-rule="evenodd" d="M15.6364 10.2727C15.6364 12.281 14.0084 13.9091 12 13.9091C9.99173 13.9091 8.36368 12.281 8.36368 10.2727C8.36368 8.26442 9.99173 6.63637 12 6.63637C14.0084 6.63637 15.6364 8.26442 15.6364 10.2727ZM13.6364 10.2727C13.6364 11.1765 12.9038 11.9091 12 11.9091C11.0963 11.9091 10.3637 11.1765 10.3637 10.2727C10.3637 9.36899 11.0963 8.63637 12 8.63637C12.9038 8.63637 13.6364 9.36899 13.6364 10.2727Z" fill="black"/>
<path fill-rule="evenodd" clip-rule="evenodd" d="M22 12C22 17.5228 17.5228 22 12 22C6.47715 22 2 17.5228 2 12C2 6.47715 6.47715 2 12 2C17.5228 2 22 6.47715 22 12ZM16.2372 18.787C15.0085 19.5557 13.5561 20 12 20C10.4439 20 8.99154 19.5557 7.76289 18.7871C7.92469 18.3509 8.24295 17.9844 8.72489 17.667C9.51778 17.145 10.7013 16.8182 12 16.8182C13.2988 16.8182 14.4823 17.145 15.2752 17.667C15.7571 17.9843 16.0754 18.3508 16.2372 18.787ZM17.825 17.4836C16.7853 15.7066 14.3927 14.8182 12 14.8182C9.60739 14.8182 7.21474 15.7066 6.17506 17.4837C4.82644 16.0516 4 14.1223 4 12C4 7.58172 7.58172 4 12 4C16.4183 4 20 7.58172 20 12C20 14.1223 19.1736 16.0516 17.825 17.4836Z" fill="black"/>
</g>
<defs>
<clipPath id="clip0_159_56339">
<rect width="24" height="24" fill="white"/>
</clipPath>
</defs>
</svg>
