<svg width="24" height="24" viewBox="0 0 24 24" fill="none" xmlns="http://www.w3.org/2000/svg">
<path d="M14 9C14 10.1046 13.1046 11 12 11C10.8954 11 10 10.1046 10 9C10 7.89543 10.8954 7 12 7C13.1046 7 14 7.89543 14 9Z" fill="black"/>
<path fill-rule="evenodd" clip-rule="evenodd" d="M16 15V15.2678C16 15.9755 15.6077 16.6081 14.9147 16.7514C14.2836 16.8819 13.3419 17 12 17C10.6581 17 9.71638 16.8819 9.08529 16.7514C8.39228 16.6081 8 15.9755 8 15.2678V15C8 13.125 9.33333 12 12 12C14.6667 12 16 13.125 16 15ZM13.9963 14.8801C13.9755 14.558 13.8696 14.451 13.7764 14.3789C13.5927 14.2368 13.0939 14 12 14C10.9061 14 10.4073 14.2368 10.2236 14.3789C10.1304 14.451 10.0245 14.558 10.0037 14.8801C10.4826 14.9465 11.1368 15 12 15C12.8632 15 13.5174 14.9465 13.9963 14.8801Z" fill="black"/>
<path fill-rule="evenodd" clip-rule="evenodd" d="M12 22C17.5228 22 22.5 17.5228 22.5 12C22.5 6.5 17.5228 2 12 2C6.47715 2 1.5 6.47715 1.5 12C1.5 14.7523 2.73612 17.245 4.65986 19.0532C4.87168 19.2523 5 19.5267 5 19.8174V21.6962C5 22.569 5.87172 23.1731 6.6889 22.8667L9.41416 21.8447C9.59727 21.776 9.79625 21.7638 9.98809 21.8018C10.6449 21.9318 11.3183 22 12 22ZM20.5 12C20.5 16.2945 16.5462 20 12 20C11.4518 20 10.9084 19.9452 10.3764 19.8399C9.849 19.7355 9.27003 19.7627 8.71191 19.972L7 20.614V19.8174C7 18.9304 6.61011 18.1415 6.02964 17.5959C4.45719 16.1179 3.5 14.1343 3.5 12C3.5 7.70545 7.45379 4 12 4C16.5431 4 20.5 7.72543 20.5 12Z" fill="black"/>
</svg>
