<svg width="24" height="24" viewBox="0 0 24 24" fill="none" xmlns="http://www.w3.org/2000/svg">
<g clip-path="url(#clip0_156_24495)">
<path fill-rule="evenodd" clip-rule="evenodd" d="M16.5 6.5C16.5 8.98528 14.4853 11 12 11C9.51472 11 7.5 8.98528 7.5 6.5C7.5 4.01472 9.51472 2 12 2C14.4853 2 16.5 4.01472 16.5 6.5ZM14.5 6.5C14.5 7.88071 13.3807 9 12 9C10.6193 9 9.5 7.88071 9.5 6.5C9.5 5.11929 10.6193 4 12 4C13.3807 4 14.5 5.11929 14.5 6.5Z" fill="black"/>
<path fill-rule="evenodd" clip-rule="evenodd" d="M20 18.9183V18.0606C20 14.0201 16 12 12 12C8 12 4 14.0201 4 18.0606V18.9183C4 20.1652 4.78161 21.2647 6.00684 21.4963C7.34017 21.7484 9.33789 22 12 22C14.6621 22 16.6598 21.7484 17.9932 21.4963C19.2184 21.2647 20 20.1652 20 18.9183ZM18 18.0606V18.9183C18 19.1274 17.9343 19.2848 17.8624 19.3796C17.7977 19.465 17.7223 19.5121 17.6216 19.5311C16.4086 19.7604 14.5353 20 12 20C9.46473 20 7.59137 19.7604 6.37835 19.5311C6.27771 19.5121 6.20232 19.465 6.13762 19.3796C6.06569 19.2848 6 19.1274 6 18.9183V18.0606C6 16.807 6.57946 15.8728 7.61711 15.174C8.71435 14.4352 10.3004 14 12 14C13.6996 14 15.2857 14.4352 16.3829 15.174C17.4205 15.8728 18 16.807 18 18.0606Z" fill="black"/>
</g>
<defs>
<clipPath id="clip0_156_24495">
<rect width="24" height="24" fill="white"/>
</clipPath>
</defs>
</svg>
