<svg width="24" height="24" viewBox="0 0 24 24" fill="none" xmlns="http://www.w3.org/2000/svg">
<path fill-rule="evenodd" clip-rule="evenodd" d="M17.3597 15.8997L16.1277 16.3662C15.0418 16.7773 13.6625 16.7481 12.5372 15.9093C10.8006 14.6148 9.49749 12.8237 8.79433 10.7705C8.34277 9.45194 8.72156 8.13263 9.42928 7.21784L10.2441 6.16467L11.6313 7.23789L10.2441 6.16467C10.2476 6.16004 10.2495 6.15626 10.2507 6.15315C10.252 6.14971 10.2526 6.14644 10.2528 6.14374C10.2528 6.14318 10.2528 6.14269 10.2528 6.14228L8.97845 4.00521L7.37624 4.57886C6.40817 4.92546 5.83972 5.93985 6.04047 6.93147L6.2459 7.94616C7.22071 12.7613 10.2238 16.8809 14.4761 19.2532L15.3744 19.7544C16.2235 20.2281 17.3373 20.0053 17.9621 19.167L18.9917 17.7855C18.9962 17.7795 18.9978 17.7754 18.9987 17.7726C18.9995 17.7701 18.9999 17.7676 19 17.7655L17.3597 15.8997ZM8.99063 3.99996C8.99063 3.99996 8.99063 3.99996 8.99063 3.99996V3.99996ZM15.4195 14.4958L16.6593 14.0263C17.4354 13.7325 18.3049 13.9458 18.8477 14.5632L20.5074 16.4511C21.1296 17.1587 21.1663 18.2146 20.5954 18.9806L19.5657 20.3622C18.3548 21.9869 16.1445 22.4742 14.4 21.501L13.5017 20.9998C8.73575 18.341 5.37548 13.7261 4.28566 8.343L4.08024 7.32832C3.68134 5.35793 4.80319 3.37577 6.70208 2.6959L8.31675 2.1178C9.21203 1.79726 10.1998 2.14832 10.6831 2.95886L11.9725 5.12111C12.3942 5.8283 12.336 6.72919 11.8259 7.38847L11.0111 8.44164C10.6403 8.92094 10.4896 9.54781 10.6864 10.1225C11.2596 11.7961 12.3208 13.2535 13.7325 14.3057C14.2172 14.6671 14.8552 14.7094 15.4195 14.4958Z" fill="black"/>
</svg>
