<svg width="24" height="24" viewBox="0 0 24 24" fill="none" xmlns="http://www.w3.org/2000/svg">
<g clip-path="url(#clip0_1820_37430)">
<path fill-rule="evenodd" clip-rule="evenodd" d="M16.3597 15.8997L15.1277 16.3662C14.0418 16.7773 12.6625 16.7481 11.5372 15.9093C9.80058 14.6148 8.49749 12.8237 7.79433 10.7705C7.34277 9.45194 7.72156 8.13263 8.42928 7.21784L9.24405 6.16467C9.24763 6.16005 9.24952 6.15626 9.25068 6.15315C9.25197 6.14971 9.2526 6.14644 9.25278 6.14374L9.25283 6.14228L7.97845 4.00521L6.37624 4.57886C5.40817 4.92546 4.83972 5.93985 5.04047 6.93147L5.2459 7.94616C6.22071 12.7613 9.22376 16.8809 13.4761 19.2532L14.3744 19.7544C15.2235 20.2281 16.3373 20.0053 16.9621 19.167L17.9917 17.7855C17.9962 17.7795 17.9978 17.7754 17.9987 17.7726C17.9995 17.7701 17.9999 17.7676 18 17.7655L16.3597 15.8997ZM14.4195 14.4958L15.6593 14.0263C16.4354 13.7325 17.3049 13.9458 17.8477 14.5632L19.5074 16.4511C20.1296 17.1587 20.1663 18.2146 19.5954 18.9806L18.5657 20.3622C17.3548 21.9869 15.1445 22.4742 13.4 21.501L12.5017 20.9998C7.73575 18.341 4.37548 13.7261 3.28566 8.343L3.08024 7.32832C2.68134 5.35793 3.80319 3.37577 5.70208 2.6959L7.31675 2.1178C8.21203 1.79726 9.19975 2.14832 9.68309 2.95886L10.9725 5.12111C11.3942 5.8283 11.336 6.72919 10.8259 7.38847L10.0111 8.44164C9.64034 8.92094 9.48964 9.54781 9.68644 10.1225C10.2596 11.7961 11.3208 13.2535 12.7325 14.3057C13.2172 14.6671 13.8552 14.7094 14.4195 14.4958Z" fill="black"/>
<path fill-rule="evenodd" clip-rule="evenodd" d="M18.1882 6.81178C16.7961 5.41968 14.8914 4.84438 13.1065 5.03562C12.5574 5.09445 12.0645 4.69698 12.0057 4.14784C11.9469 3.5987 12.3443 3.10584 12.8935 3.047C15.2353 2.79608 17.7521 3.54723 19.6024 5.39757C21.4509 7.24603 22.2033 9.68705 21.9534 12.1029C21.8966 12.6523 21.4051 13.0515 20.8558 12.9947C20.3064 12.9379 19.9072 12.4465 19.964 11.8971C20.1562 10.0388 19.5822 8.20575 18.1882 6.81178ZM15.6827 9.24359C15.0916 8.65252 14.2963 8.38995 13.5006 8.49603C12.9532 8.56902 12.4502 8.18441 12.3772 7.63697C12.3042 7.08953 12.6889 6.58657 13.2363 6.51358C14.6514 6.3249 16.0668 6.79924 17.0969 7.82938C18.1301 8.86255 18.6033 10.356 18.4114 11.6993C18.3333 12.246 17.8268 12.6259 17.2801 12.5478C16.7333 12.4697 16.3534 11.9632 16.4315 11.4164C16.5344 10.6963 16.2707 9.83163 15.6827 9.24359Z" fill="black"/>
</g>
<defs>
<clipPath id="clip0_1820_37430">
<rect width="24" height="24" fill="white"/>
</clipPath>
</defs>
</svg>
