<svg width="24" height="24" viewBox="0 0 24 24" fill="none" xmlns="http://www.w3.org/2000/svg">
<path fill-rule="evenodd" clip-rule="evenodd" d="M3.70711 2.29289C3.31658 1.90237 2.68342 1.90237 2.29289 2.29289C1.90237 2.68342 1.90237 3.31658 2.29289 3.70711L20.2929 21.7071C20.6834 22.0976 21.3166 22.0976 21.7071 21.7071C22.0976 21.3166 22.0976 20.6834 21.7071 20.2929L15.2852 13.871L17.0106 12.1455L20.0108 10.8597C21.0685 10.4064 21.5162 9.16015 20.8913 8.19387C20.2787 7.24664 19.4314 6.08094 18.4249 5.07443C17.4183 4.06792 16.2526 3.2206 15.3054 2.608C14.3391 1.98308 13.0929 2.4308 12.6396 3.4885L11.3538 6.48865L9.62832 8.21411L3.70711 2.29289ZM11.0425 9.62832L13.871 12.4567L15.5964 10.7313C15.7763 10.5514 15.9889 10.4074 16.2228 10.3072L19.0822 9.08176C18.5283 8.24508 17.8165 7.29446 17.0106 6.48865C16.2048 5.68283 15.2542 4.971 14.4175 4.4171L13.1921 7.27649C13.0918 7.51035 12.9479 7.72295 12.768 7.90286L11.0425 9.62832Z" fill="black"/>
<path d="M4.98982 10.0242C5.2179 9.7961 5.52873 9.70123 5.82566 9.73956L13.7597 17.6736C13.7981 17.9705 13.7032 18.2814 13.4751 18.5095C13.0846 18.9 12.4514 18.9 12.0609 18.5095L9.23246 15.681L4.98982 19.9237C4.5993 20.3142 3.96613 20.3142 3.57561 19.9237C3.18508 19.5332 3.18508 18.9 3.57561 18.5095L7.81825 14.2668L4.98982 11.4384C4.5993 11.0479 4.5993 10.4147 4.98982 10.0242Z" fill="black"/>
</svg>
