<svg width="24" height="24" viewBox="0 0 24 24" fill="none" xmlns="http://www.w3.org/2000/svg">
<path fill-rule="evenodd" clip-rule="evenodd" d="M9.23238 15.682L12.0608 18.5104C12.4513 18.9009 13.0845 18.9009 13.475 18.5104C13.8655 18.1199 13.8655 17.4867 13.475 17.0962L12.7679 16.3891L17.0106 12.1464L20.0107 10.8607C21.0684 10.4074 21.5161 9.16109 20.8912 8.19481C20.2786 7.24758 19.4313 6.08188 18.4248 5.07537C17.4183 4.06886 16.2526 3.22154 15.3053 2.60894C14.3391 1.98402 13.0928 2.43174 12.6395 3.48944L11.3537 6.48959L7.11106 10.7322L6.40395 10.0251C6.01343 9.6346 5.38026 9.6346 4.98974 10.0251C4.59922 10.4156 4.59922 11.0488 4.98974 11.4393L7.81817 14.2678L3.57553 18.5104C3.185 18.9009 3.185 19.5341 3.57553 19.9246C3.96605 20.3151 4.59922 20.3151 4.98974 19.9246L9.23238 15.682ZM15.5963 10.7322C15.7763 10.5523 15.9889 10.4084 16.2227 10.3082L19.0821 9.0827C18.5282 8.24602 17.8164 7.2954 17.0106 6.48959C16.2047 5.68377 15.2541 4.97194 14.4174 4.41804L13.192 7.27743C13.0918 7.51129 12.9478 7.72389 12.7679 7.9038L8.52527 12.1464L11.3537 14.9749L15.5963 10.7322Z" fill="black"/>
</svg>
