<svg width="24" height="24" viewBox="0 0 24 24" fill="none" xmlns="http://www.w3.org/2000/svg">
<path d="M11 7C11.5523 7 12 7.44772 12 8V11H15C15.5523 11 16 11.4477 16 12C16 12.5523 15.5523 13 15 13H12V16C12 16.5523 11.5523 17 11 17C10.4477 17 10 16.5523 10 16V13H7C6.44771 13 6 12.5523 6 12C6 11.4477 6.44771 11 7 11H10V8C10 7.44772 10.4477 7 11 7Z" fill="black"/>
<path fill-rule="evenodd" clip-rule="evenodd" d="M11 21C13.125 21 15.078 20.2635 16.6177 19.0319L19.2929 21.7071C19.6834 22.0976 20.3166 22.0976 20.7071 21.7071C21.0976 21.3166 21.0976 20.6834 20.7071 20.2929L18.0319 17.6177C19.2635 16.078 20 14.125 20 12C20 7.02944 15.9706 3 11 3C6.02944 3 2 7.02944 2 12C2 16.9706 6.02944 21 11 21ZM11 19C14.866 19 18 15.866 18 12C18 8.13401 14.866 5 11 5C7.13401 5 4 8.13401 4 12C4 15.866 7.13401 19 11 19Z" fill="black"/>
</svg>
