<svg width="24" height="24" viewBox="0 0 24 24" fill="none" xmlns="http://www.w3.org/2000/svg">
<g clip-path="url(#clip0_2285_107602)">
<path d="M9.49687 11.1055V6.18457C9.49687 5.89917 9.58353 5.75685 9.64433 5.69238C9.70904 5.6238 9.7911 5.5918 9.87284 5.5918C9.95451 5.59185 10.0367 5.62386 10.1014 5.69238C10.1621 5.75695 10.2478 5.8995 10.2478 6.18457V10.6582C10.248 11.0722 10.5839 11.408 10.9978 11.4082C11.412 11.4082 11.7477 11.0723 11.7478 10.6582V5.0918C11.7479 4.8069 11.8345 4.66512 11.8953 4.60059C11.96 4.532 12.0421 4.5 12.1238 4.5C12.2055 4.50004 12.2877 4.53204 12.3523 4.60059C12.4131 4.66519 12.4988 4.80711 12.4988 5.0918V10.6582C12.499 11.0721 12.8349 11.408 13.2488 11.4082C13.6629 11.4082 13.9987 11.0723 13.9988 10.6582V6.18457L14.0027 6.08398C14.0201 5.86468 14.0931 5.74884 14.1463 5.69238C14.211 5.6238 14.2931 5.5918 14.3748 5.5918C14.4565 5.59181 14.5386 5.62382 14.6033 5.69238C14.6641 5.75692 14.7498 5.89938 14.7498 6.18457H14.7508C14.7507 6.18967 14.7498 6.19507 14.7498 6.2002V13.499C13.5497 13.59 12.5003 14.2212 11.8494 15.1484C11.6117 15.4874 11.6941 15.9545 12.033 16.1924C12.372 16.4302 12.839 16.3487 13.0769 16.0098C13.5112 15.3911 14.2323 14.9875 15.0496 14.9873H15.4998C15.7175 14.9873 15.9228 14.8921 16.0642 14.7305L16.1209 14.6572L17.8328 12.1318C18.0029 11.881 18.3374 11.8105 18.5926 11.9541L18.6961 12.0293C18.7464 12.0748 18.762 12.1437 18.7391 12.2041L17.7303 14.8633L17.6541 15.0527C17.2559 15.9891 16.5891 16.791 15.7342 17.3574L15.5896 17.459C14.8807 17.9782 14.3787 18.7287 14.1707 19.5781L14.0574 20.0254L14.0379 20.0996C13.9612 20.4718 14.1773 20.8493 14.5476 20.9658C14.918 21.0821 15.3107 20.896 15.4607 20.5469L15.4881 20.4746L15.5682 20.1826L15.6277 19.9346C15.7434 19.4624 16.0115 19.0397 16.3924 18.7324L16.5623 18.6084C17.6618 17.88 18.5205 16.8471 19.034 15.6396L19.1326 15.3955L20.1414 12.7363C20.3846 12.0956 20.2089 11.3733 19.701 10.915L19.5193 10.7686C18.5855 10.0976 17.253 10.3127 16.5906 11.29L16.2498 11.793V6.2002C16.2498 6.19507 16.2489 6.18967 16.2488 6.18457H16.2498C16.2498 5.57536 16.0553 5.04601 15.6941 4.66309C15.3368 4.28432 14.8558 4.09182 14.3748 4.0918C14.1902 4.0918 14.0055 4.12048 13.8279 4.17676C13.7352 3.94914 13.6069 3.74497 13.4432 3.57129C13.0858 3.19254 12.6048 3.00004 12.1238 3C11.6428 3 11.1618 3.1925 10.8045 3.57129C10.6407 3.74488 10.5134 3.94925 10.4207 4.17676C10.2428 4.12026 10.0578 4.09182 9.87284 4.0918C9.39184 4.0918 8.91087 4.28432 8.55351 4.66309C8.19223 5.04602 7.99687 5.57531 7.99687 6.18457V6.82031C7.87082 6.79421 7.7425 6.78086 7.61405 6.78223C7.12962 6.7874 6.64942 6.98885 6.29569 7.37598C5.9394 7.76595 5.74896 8.30073 5.7498 8.91602V14.2949L5.75858 14.625C5.79209 15.2841 5.92506 15.933 6.15409 16.54L6.27714 16.8398L7.4871 19.5889C7.57072 19.7788 7.64996 19.9962 7.70976 20.1729C7.73915 20.2597 7.76285 20.334 7.77909 20.3857C7.78716 20.4115 7.7936 20.432 7.79765 20.4453C7.7996 20.4517 7.80065 20.457 7.80155 20.46L7.80253 20.4629L7.82792 20.5352C7.97202 20.8871 8.36268 21.0791 8.73515 20.9688C9.13213 20.851 9.35857 20.4342 9.24101 20.0371V20.0361L9.24003 20.0342C9.23961 20.0328 9.23878 20.0307 9.23808 20.0283C9.23663 20.0235 9.23478 20.0162 9.23222 20.0078C9.22702 19.9907 9.22013 19.9665 9.21073 19.9365C9.19175 19.876 9.16428 19.7907 9.13066 19.6914C9.06445 19.4959 8.96913 19.2319 8.86015 18.9844L7.64921 16.2354L7.55741 16.0098C7.38494 15.5524 7.28252 15.0573 7.25663 14.5498L7.2498 14.2949V8.91504L7.2537 8.80859C7.27126 8.57517 7.34673 8.44941 7.40312 8.3877C7.47026 8.31426 7.55206 8.28316 7.62968 8.28223C7.70779 8.2814 7.78703 8.31111 7.85038 8.37793C7.91014 8.44108 7.99681 8.58252 7.99687 8.86816V11.1055C7.99698 11.5195 8.33283 11.8553 8.74687 11.8555C9.16101 11.8555 9.49676 11.5196 9.49687 11.1055Z" fill="black"/>
</g>
<defs>
<clipPath id="clip0_2285_107602">
<rect width="24" height="24" fill="white"/>
</clipPath>
</defs>
</svg>
