<svg width="24" height="24" viewBox="0 0 24 24" fill="none" xmlns="http://www.w3.org/2000/svg">
<g clip-path="url(#clip0_1820_38802)">
<path fill-rule="evenodd" clip-rule="evenodd" d="M18.6288 4C20.06 4 21.2918 5.01159 21.5032 6.42716C21.7437 8.03665 22 10.1794 22 12C22 13.8206 21.7437 15.9633 21.5032 17.5728C21.2918 18.9884 20.06 20 18.6288 20H5.37124C3.93997 20 2.70822 18.9884 2.49676 17.5728C2.25632 15.9633 2 13.8206 2 12C2 10.1794 2.25632 8.03665 2.49676 6.42715C2.70822 5.01159 3.93997 4 5.37124 4H18.6288ZM18.6288 18L5.37124 18C4.8804 18 4.53267 17.6647 4.47481 17.2774C4.23841 15.6949 4 13.6694 4 12C4 11.2662 4.04606 10.4636 4.11777 9.66011L9.69327 13.5958C11.0762 14.5719 12.9238 14.5719 14.3067 13.5958L19.8822 9.66011C19.9539 10.4636 20 11.2662 20 12C20 13.6694 19.7616 15.6949 19.5252 17.2774C19.4673 17.6647 19.1196 18 18.6288 18ZM19.6218 7.39585L13.1534 11.9618C12.4619 12.4499 11.5381 12.4499 10.8466 11.9618L4.37817 7.39584C4.41001 7.1645 4.44243 6.93941 4.47481 6.72264C4.53267 6.33533 4.8804 6 5.37124 6L18.6288 6C19.1196 6 19.4673 6.33533 19.5252 6.72265C19.5576 6.93942 19.59 7.1645 19.6218 7.39585Z" fill="black"/>
</g>
<defs>
<clipPath id="clip0_1820_38802">
<rect width="24" height="24" fill="white"/>
</clipPath>
</defs>
</svg>
