<svg width="24" height="24" viewBox="0 0 24 24" fill="none" xmlns="http://www.w3.org/2000/svg">
<g clip-path="url(#clip0_2028_15993)">
<g clip-path="url(#clip1_2028_15993)">
<path fill-rule="evenodd" clip-rule="evenodd" d="M9.83665 8.39861C8.05618 7.89673 6.19883 7.72529 4.35658 7.89276L0.909464 8.20614C0.394385 8.25296 0 8.68483 0 9.20203V10.302C0 10.7474 0.291188 11.1248 0.69358 11.2542C0.705244 11.3207 0.717553 11.3898 0.730456 11.4611C0.832119 12.0228 0.97638 12.749 1.13714 13.322C1.2568 13.7486 1.43222 14.2236 1.60332 14.6502C2.13733 15.9813 3.36556 16.8332 4.71621 17.015L5.13407 17.0713C6.72502 17.2854 8.31858 16.6964 9.38773 15.4989C9.89169 14.9345 10.2562 14.2597 10.452 13.5288L10.9873 11.5301C11.1103 11.0712 11.5262 10.7521 12.0013 10.7521C12.4763 10.7522 12.8921 11.0713 13.015 11.5301L13.5504 13.5291C13.7462 14.26 14.1107 14.9348 14.6147 15.4992C15.6838 16.6966 17.2774 17.2857 18.8683 17.0715L19.2862 17.0153C20.6368 16.8335 21.8651 15.9815 22.3991 14.6504C22.5702 14.2239 22.7456 13.7488 22.8653 13.3223C23.026 12.7492 23.1703 12.0231 23.2719 11.4614C23.2848 11.3901 23.2972 11.3209 23.3088 11.2544C23.7112 11.125 24.0024 10.7477 24.0024 10.3023V9.20228C24.0024 8.68507 23.608 8.25321 23.0929 8.20638L19.6458 7.89301C17.8036 7.72553 15.9462 7.89698 14.1657 8.39885L13.7872 8.50555C13.2255 8.66388 12.6454 8.74673 12.062 8.752C11.4113 8.75031 10.7638 8.65995 10.1374 8.48338L9.83665 8.39861ZM2.73796 11.1804C2.63868 10.591 3.05593 10.0193 3.6511 9.96515L4.53765 9.88455C5.76009 9.77342 6.99019 9.83422 8.19228 10.0637C8.77981 10.1758 9.11907 10.7751 8.96431 11.3529L8.52009 13.0113C8.40526 13.4401 8.19145 13.8358 7.89586 14.1669C7.26875 14.8693 6.33405 15.2148 5.40089 15.0892L4.98303 15.0329C4.2742 14.9375 3.69923 14.503 3.45953 13.9055C3.29904 13.5055 3.15402 13.107 3.06281 12.7819C2.91489 12.2546 2.82836 11.717 2.73796 11.1804ZM21.2644 11.1806C21.3637 10.5913 20.9465 10.0195 20.3513 9.96539L19.4647 9.88479C18.2423 9.77366 17.0122 9.83447 15.8101 10.0639C15.2226 10.1761 14.8833 10.7754 15.0381 11.3532L15.4823 13.0116C15.5971 13.4403 15.8109 13.8361 16.1065 14.1672C16.7336 14.8695 17.6683 15.215 18.6015 15.0894L19.0194 15.0331C19.7282 14.9377 20.3032 14.5033 20.5429 13.9058C20.7034 13.5057 20.8484 13.1072 20.9396 12.7821C21.0875 12.2548 21.174 11.7172 21.2644 11.1806Z" fill="black"/>
</g>
</g>
<defs>
<clipPath id="clip0_2028_15993">
<rect width="24" height="24" fill="white"/>
</clipPath>
<clipPath id="clip1_2028_15993">
<rect width="24" height="24" fill="white"/>
</clipPath>
</defs>
</svg>
