<svg width="24" height="24" viewBox="0 0 24 24" fill="none" xmlns="http://www.w3.org/2000/svg">
<g clip-path="url(#clip0_159_56539)">
<path d="M8.81823 12C9.57134 12 10.1819 11.186 10.1819 10.1818C10.1819 9.17768 9.57134 8.36365 8.81823 8.36365C8.06511 8.36365 7.45459 9.17768 7.45459 10.1818C7.45459 11.186 8.06511 12 8.81823 12Z" fill="black"/>
<path d="M9.19514 14.1719C8.88842 13.7126 8.26745 13.5889 7.80817 13.8957C7.34888 14.2024 7.2252 14.8233 7.53191 15.2826C8.45889 16.6707 10.1411 17.5454 11.9999 17.5454C13.8587 17.5454 15.5409 16.6707 16.4679 15.2826C16.7746 14.8233 16.6509 14.2024 16.1916 13.8957C15.7323 13.5889 15.1114 13.7126 14.8046 14.1719C14.2799 14.9576 13.2488 15.5454 11.9999 15.5454C10.751 15.5454 9.71986 14.9576 9.19514 14.1719Z" fill="black"/>
<path d="M16.5454 10.1818C16.5454 11.186 15.9349 12 15.1818 12C14.4286 12 13.8181 11.186 13.8181 10.1818C13.8181 9.17768 14.4286 8.36365 15.1818 8.36365C15.9349 8.36365 16.5454 9.17768 16.5454 10.1818Z" fill="black"/>
<path fill-rule="evenodd" clip-rule="evenodd" d="M12 2C6.47715 2 2 6.47715 2 12C2 17.5228 6.47715 22 12 22C17.5228 22 22 17.5228 22 12C22 6.47715 17.5228 2 12 2ZM4 12C4 7.58172 7.58172 4 12 4C16.4183 4 20 7.58172 20 12C20 16.4183 16.4183 20 12 20C7.58172 20 4 16.4183 4 12Z" fill="black"/>
</g>
<defs>
<clipPath id="clip0_159_56539">
<rect width="24" height="24" fill="white"/>
</clipPath>
</defs>
</svg>
