<svg width="24" height="24" viewBox="0 0 24 24" fill="none" xmlns="http://www.w3.org/2000/svg">
<g clip-path="url(#clip0_156_22110)">
<path fill-rule="evenodd" clip-rule="evenodd" d="M12 19.1207C16.2758 19.1207 20 15.619 20 11.5603C20 7.52061 16.2727 4 12 4C7.72422 4 4 7.50164 4 11.5603C4 13.5711 4.89589 15.4411 6.37031 16.8377C6.94473 17.3818 7.33335 18.1674 7.33335 19.053V19.6648L8.81843 19.1058C9.37875 18.8949 9.95896 18.8681 10.4857 18.9719C10.9822 19.0697 11.4889 19.1207 12 19.1207ZM22 11.5603C22 16.8404 17.2599 21.1207 12 21.1207C11.356 21.1207 10.7197 21.0565 10.099 20.9342C9.90644 20.8962 9.70673 20.9084 9.52304 20.9776L7.02373 21.9184C6.2063 22.2261 5.33335 21.622 5.33335 20.7486V19.053C5.33335 18.763 5.20551 18.4892 4.99495 18.2898C3.17107 16.5622 2 14.1847 2 11.5603C2 6.28031 6.74015 2 12 2C17.2599 2 22 6.30215 22 11.5603Z" fill="black"/>
</g>
<defs>
<clipPath id="clip0_156_22110">
<rect width="24" height="24" fill="white"/>
</clipPath>
</defs>
</svg>
