<svg width="24" height="24" viewBox="0 0 24 24" fill="none" xmlns="http://www.w3.org/2000/svg">
<path d="M3.84647 5.16778L17.6796 3.01235C18.2253 2.92732 18.7366 3.30077 18.8216 3.84647L19.5914 8.78686C19.6722 9.30521 19.7116 9.82046 19.712 10.3293C20.342 10.0458 21.0342 9.94535 21.7082 10.028C21.6948 9.51579 21.6485 8.99867 21.5675 8.47894L20.7977 3.53855C20.5427 1.90145 19.0087 0.78111 17.3716 1.0362L3.53855 3.19163C1.90145 3.44672 0.78111 4.98064 1.0362 6.61774L3.19163 20.4508C3.44672 22.0879 4.98064 23.2083 6.61774 22.9532L9.99695 22.4266C10.0134 21.7121 10.1395 21.0106 10.366 20.345L6.30982 20.977C5.76412 21.062 5.25281 20.6886 5.16778 20.1429L3.01235 6.30982C2.92732 5.76412 3.30077 5.25281 3.84647 5.16778Z" fill="black"/>
<path d="M16.5729 12.1882C16.7769 12.3105 16.9216 12.4941 16.9975 12.7012L13.211 16.4877C13.0014 16.5455 12.787 16.5918 12.5683 16.6259C10.6887 16.9188 8.88652 16.2539 7.49354 15.0283C7.07889 14.6635 7.03849 14.0316 7.4033 13.617C7.76811 13.2023 8.39998 13.1619 8.81463 13.5267C9.83973 14.4286 11.0625 14.8364 12.2604 14.6498C12.6497 14.5891 13.0179 14.4692 13.3616 14.2972C14.0888 13.9335 14.724 13.3272 15.201 12.5316C15.485 12.058 16.0993 11.9042 16.5729 12.1882Z" fill="black"/>
<path d="M16.142 8.16886C16.2695 8.98741 15.7094 9.75437 14.8908 9.88192C14.0723 10.0095 13.3053 9.44929 13.1777 8.63074C13.0502 7.81219 13.6104 7.04523 14.4289 6.91769C15.2475 6.79014 16.0144 7.35031 16.142 8.16886Z" fill="black"/>
<path d="M8.74261 10.8399C9.56116 10.7124 10.1213 9.94542 9.99378 9.12687C9.86624 8.30832 9.09928 7.74815 8.28073 7.87569C7.46218 8.00324 6.90201 8.7702 7.02955 9.58875C7.1571 10.4073 7.92406 10.9675 8.74261 10.8399Z" fill="black"/>
<path d="M13.4479 19.0792L17.8455 14.6817L20.3134 17.1497L15.9159 21.5472C14.9857 22.4774 13.724 23 12.4085 23C12.1802 23 11.9951 22.8149 11.9951 22.5866C11.9951 21.2711 12.5177 20.0094 13.4479 19.0792Z" fill="black"/>
<path d="M21.7276 15.7354L19.2597 13.2675L20.016 12.5111C20.6975 11.8296 21.8025 11.8296 22.484 12.5111C23.1655 13.1926 23.1655 14.2976 22.484 14.9791L21.7276 15.7354Z" fill="black"/>
</svg>
