<svg width="24" height="24" viewBox="0 0 24 24" fill="none" xmlns="http://www.w3.org/2000/svg">
<path fill-rule="evenodd" clip-rule="evenodd" d="M11.9999 5.0771L10.4548 8.68222C10.1134 9.47878 9.47871 10.1135 8.68216 10.4549L5.02066 12.0241L8.50632 13.5578C9.26608 13.8921 9.87601 14.4947 10.2195 15.2503L11.946 19.0484L13.5449 15.3176C13.8863 14.5211 14.521 13.8863 15.3175 13.545L18.9227 11.9999L15.3175 10.4549C14.521 10.1135 13.8863 9.47877 13.5449 8.68222L11.9999 5.0771ZM13.2637 2.94884C12.7875 1.83769 11.2122 1.83769 10.736 2.94884L8.61651 7.89439C8.47743 8.21891 8.21885 8.47749 7.89433 8.61657L2.91002 10.7527C1.80468 11.2264 1.79715 12.7907 2.89788 13.2751L7.70082 15.3884C8.01036 15.5246 8.25884 15.7701 8.39879 16.078L10.7111 21.1648C11.2054 22.2523 12.7561 22.2354 13.2267 21.1374L15.3832 16.1054C15.5223 15.7809 15.7809 15.5223 16.1054 15.3833L21.0509 13.2637C22.1621 12.7875 22.1621 11.2123 21.0509 10.7361L16.1054 8.61657C15.7809 8.47749 15.5223 8.21891 15.3832 7.89439L13.2637 2.94884Z" fill="black"/>
</svg>
