<svg width="24" height="24" viewBox="0 0 24 24" fill="none" xmlns="http://www.w3.org/2000/svg">
<g clip-path="url(#clip0_1820_44068)">
<path d="M12.0002 11C13.519 11 14.7502 9.76878 14.7502 8.25C14.7502 6.73122 13.519 5.5 12.0002 5.5C10.4815 5.5 9.25024 6.73122 9.25024 8.25C9.25024 9.76878 10.4815 11 12.0002 11Z" fill="black"/>
<path d="M7.50024 9.25C7.50024 10.2165 6.71674 11 5.75024 11C4.78375 11 4.00024 10.2165 4.00024 9.25C4.00024 8.2835 4.78375 7.5 5.75024 7.5C6.71674 7.5 7.50024 8.2835 7.50024 9.25Z" fill="black"/>
<path d="M20.0002 9.25C20.0002 10.2165 19.2167 11 18.2502 11C17.2837 11 16.5002 10.2165 16.5002 9.25C16.5002 8.2835 17.2837 7.5 18.2502 7.5C19.2167 7.5 20.0002 8.2835 20.0002 9.25Z" fill="black"/>
<path d="M17.8186 16.538V16.0909C17.8186 15.5559 17.7566 15.0309 17.6268 14.5299C17.8506 14.5398 18.0959 14.5455 18.3638 14.5455C19.035 14.5455 19.5638 14.5096 19.9702 14.4617C19.963 14.4359 19.9557 14.4174 19.9501 14.4051C19.9363 14.3743 19.9176 14.3452 19.8675 14.3065C19.7444 14.2112 19.3365 14 18.3638 14C17.9957 14 17.7085 14.0303 17.487 14.073C17.2556 13.4215 16.8986 12.8211 16.4022 12.3056C16.9309 12.1056 17.5848 12 18.3638 12C20.7881 12 22.0002 13.0227 22.0002 14.7273V14.867C22.0002 15.5747 21.6068 16.2057 20.912 16.3398C20.3404 16.4501 19.5137 16.5455 18.3638 16.5455C18.1733 16.5455 17.9917 16.5429 17.8186 16.538Z" fill="black"/>
<path d="M5.63641 12.0002C6.35057 12.0002 6.95953 12.089 7.46331 12.2578C6.94976 12.7765 6.58087 13.384 6.34195 14.0448C6.14902 14.0177 5.91606 14.0002 5.63641 14.0002C4.66372 14.0002 4.25583 14.2115 4.1327 14.3067C4.08266 14.3454 4.06397 14.3746 4.05009 14.4053C4.04453 14.4176 4.03727 14.4361 4.03001 14.462C4.43641 14.5098 4.96524 14.5458 5.63641 14.5458C5.83306 14.5458 6.01748 14.5427 6.19019 14.5371C6.06167 15.0359 6.00024 15.5584 6.00024 16.0909V16.5425C5.88273 16.5446 5.76149 16.5458 5.63641 16.5458C4.48655 16.5458 3.65988 16.4504 3.08828 16.3401C2.39342 16.2059 2 15.5749 2 14.8673V14.7276C2 13.023 3.21214 12.0002 5.63641 12.0002Z" fill="black"/>
<path fill-rule="evenodd" clip-rule="evenodd" d="M16.5412 16.091V16.5371C16.5412 17.2086 16.2433 17.8103 15.538 17.9905C14.8272 18.1775 13.6932 18.3637 11.9957 18.3637C10.2982 18.3637 9.16423 18.1775 8.45341 17.9905C7.80403 17.8196 7.4502 17.2086 7.4502 16.5371V16.091C7.4502 13.7046 8.96537 12 11.9957 12C15.0261 12 16.5412 13.7046 16.5412 16.091ZM14.5412 16.1645V16.091C14.5412 15.3264 14.3082 14.8691 14.0226 14.5961C13.7302 14.3165 13.1409 14 11.9957 14C10.8506 14 10.2612 14.3165 9.96881 14.5961C9.68324 14.8691 9.4502 15.3264 9.4502 16.091V16.1645C10.0125 16.2693 10.84 16.3637 11.9957 16.3637C13.1514 16.3637 13.9789 16.2693 14.5412 16.1645Z" fill="black"/>
</g>
<defs>
<clipPath id="clip0_1820_44068">
<rect width="24" height="24" fill="white"/>
</clipPath>
</defs>
</svg>
