<svg width="24" height="24" viewBox="0 0 24 24" fill="none" xmlns="http://www.w3.org/2000/svg">
<path d="M21 12C21 7.02944 16.9706 3 12 3C9.85633 3 7.88879 3.74851 6.34257 5H8C8.55229 5 9 5.44772 9 6C9 6.55228 8.55229 7 8 7H4C3.44772 7 3 6.55228 3 6V2C3 1.44772 3.44772 1 4 1C4.55228 1 5 1.44772 5 2V3.51439C6.90135 1.94439 9.34106 1 12 1C18.0751 1 23 5.92487 23 12C23 12.7521 22.9244 13.4876 22.78 14.1989C22.6701 14.7402 22.1423 15.0899 21.601 14.98C21.0598 14.8701 20.7101 14.3423 20.82 13.8011C20.9379 13.22 21 12.6177 21 12Z" fill="black"/>
<path d="M12 21C7.02944 21 3 16.9706 3 12C3 11.3823 3.06209 10.78 3.18005 10.1989C3.28992 9.65769 2.94021 9.12985 2.39897 9.01999C1.85772 8.91012 1.32989 9.25982 1.22002 9.80107C1.07563 10.5124 1 11.2479 1 12C1 18.0751 5.92487 23 12 23C14.6589 23 17.0986 22.0556 19 20.4856V22C19 22.5523 19.4477 23 20 23C20.5523 23 21 22.5523 21 22V18C21 17.4477 20.5523 17 20 17H16C15.4477 17 15 17.4477 15 18C15 18.5523 15.4477 19 16 19H17.6574C16.1112 20.2515 14.1437 21 12 21Z" fill="black"/>
</svg>
