<svg width="24" height="24" viewBox="0 0 24 24" fill="none" xmlns="http://www.w3.org/2000/svg">
<path d="M16.2929 8.29289L17.5858 7L7 7.00001C5.89543 7.00001 5 7.89544 5 9V10C5 10.5523 4.55228 11 4 11C3.44771 11 3 10.5523 3 10V9C3 6.79087 4.79086 5.00001 7 5.00001L17.5858 5L16.2929 3.70711C15.9024 3.31658 15.9024 2.68342 16.2929 2.29289C16.6834 1.90237 17.3166 1.90237 17.7071 2.29289L20.7071 5.29289C21.0976 5.68342 21.0976 6.31658 20.7071 6.70711L17.7071 9.70711C17.3166 10.0976 16.6834 10.0976 16.2929 9.70711C15.9024 9.31658 15.9024 8.68342 16.2929 8.29289Z" fill="black"/>
<path d="M7.70711 15.7071L6.41421 17L17 17C18.1046 17 19 16.1046 19 15V14C19 13.4477 19.4477 13 20 13C20.5523 13 21 13.4477 21 14V15C21 17.2091 19.2091 19 17 19H6.41421L7.70711 20.2929C8.09763 20.6834 8.09763 21.3166 7.70711 21.7071C7.31658 22.0976 6.68342 22.0976 6.29289 21.7071L3.29289 18.7071C2.90237 18.3166 2.90237 17.6834 3.29289 17.2929L6.29289 14.2929C6.68342 13.9024 7.31658 13.9024 7.70711 14.2929C8.09763 14.6834 8.09763 15.3166 7.70711 15.7071Z" fill="black"/>
</svg>
