<svg width="24" height="24" viewBox="0 0 24 24" fill="none" xmlns="http://www.w3.org/2000/svg">
<path d="M12.3356 19.2526C11.9229 19.6195 11.8857 20.2516 12.2526 20.6644C12.6195 21.0771 13.2516 21.1143 13.6644 20.7474L22.6644 12.7474C22.8779 12.5576 23 12.2856 23 12C23 11.7144 22.8779 11.4424 22.6644 11.2526L13.6644 3.25259C13.2516 2.88567 12.6195 2.92285 12.2526 3.33563C11.8857 3.74842 11.9229 4.38049 12.3356 4.74741L20.4948 12L12.3356 19.2526Z" fill="black"/>
<path fill-rule="evenodd" clip-rule="evenodd" d="M3.00001 7.00001H7.00001L7.00001 4.26056C7.00001 3.39242 8.03031 2.93665 8.67269 3.52062L17.1861 11.2601C17.6225 11.6568 17.6225 12.3432 17.1861 12.7399L8.67269 20.4794C8.03031 21.0634 7.00001 20.6076 7.00001 19.7395V17L3.00001 17C1.89544 17 1.00001 16.1046 1.00001 15L1.00001 9.00001C1.00001 7.89544 1.89544 7.00001 3.00001 7.00001ZM9.00001 17C9.00001 15.8954 8.10458 15 7.00001 15H3.00001L3.00001 9.00001H7.00001C7.53045 9.00001 8.03915 8.7893 8.41423 8.41422C8.7893 8.03915 9.00001 7.53044 9.00001 7.00001V6.52111L15.0268 12L9.00001 17.4789V17Z" fill="black"/>
</svg>
